<svg version="1.1" id="Layer_4" xmlns="http://www.w3.org/2000/svg" x="0" y="0" viewBox="0 0 349.7 77.88" style="enable-background:new 0 0 349.7 77.88" xml:space="preserve"><style>.st0{fill:none;stroke:#fff;stroke-width:.25;stroke-linecap:round;stroke-miterlimit:10}.st1{fill:#fff}</style><path class="st0" d="M132.08 15v49.33"/><path class="st1" d="M18.64 59.75c0-1.12.86-1.85 1.84-1.85.77 0 1.22.42 1.4.9l-.65.22c-.12-.33-.42-.52-.79-.52-.6 0-1.1.52-1.1 1.21 0 .49.35.86.89.86.27 0 .56-.14.74-.36l.52.35c-.36.46-.89.61-1.3.61-.87 0-1.55-.56-1.55-1.42zM23.75 59.13l.06-.3h.61l-.51 2.29h-.61l.07-.28c-.19.23-.41.34-.69.34-.52 0-.87-.34-.87-.95 0-.69.43-1.45 1.21-1.45.3-.01.57.12.73.35zm-1.31.97c0 .33.22.54.51.54.21 0 .4-.11.53-.27l.18-.8a.638.638 0 0 0-.54-.27c-.4 0-.68.38-.68.8zM24.74 60.67c0-.03 0-.1.02-.16l.26-1.17h-.38l.12-.52h.38l.14-.63h.61l-.14.63h.46l-.12.52h-.46l-.22.99c-.01.03-.01.07-.01.09 0 .12.07.2.22.2.06 0 .14-.02.17-.05l.02.48c-.09.06-.23.1-.38.1-.41.02-.69-.14-.69-.48zM28.13 59.13l.06-.3h.61l-.51 2.29h-.61l.07-.28c-.19.23-.41.34-.69.34-.52 0-.87-.34-.87-.95 0-.69.43-1.45 1.21-1.45.3-.01.57.12.73.35zm-1.31.97c0 .33.22.54.51.54.21 0 .4-.11.53-.27l.18-.8a.638.638 0 0 0-.54-.27c-.4 0-.68.38-.68.8zM28.89 61.11l.7-3.16h.6l-.7 3.16h-.6zM30.01 61.46c.05.02.15.04.23.04.12 0 .2-.04.28-.16l.14-.21-.41-2.3h.63l.24 1.59.96-1.59h.66l-1.67 2.66c-.25.41-.51.55-.89.55-.13 0-.27-.02-.38-.06l.21-.52zM32.42 61.11l.1-.45 1.3-1.31h-1.01l.11-.53h1.85l-.09.44-1.32 1.33h1.04l-.11.53h-1.87zM34.79 61.11l.51-2.29h.6l-.51 2.29h-.6zm.57-2.84c0-.26.22-.41.4-.41.19 0 .33.14.33.31 0 .26-.22.41-.41.41s-.32-.14-.32-.31zM37.53 61.11l.3-1.36c.01-.04.02-.1.02-.15 0-.21-.17-.29-.35-.29-.25 0-.45.14-.58.27l-.34 1.54h-.6l.51-2.29h.6l-.07.3c.18-.18.43-.36.76-.36.44 0 .72.23.72.58 0 .04-.01.14-.02.19l-.35 1.57h-.6zM38.59 61.64l.35-.4c.15.2.45.31.74.31.28 0 .54-.13.65-.59l.05-.21c-.18.21-.42.35-.7.35-.46 0-.86-.27-.86-.93 0-.7.44-1.4 1.18-1.4.27 0 .57.14.74.36l.07-.3h.61l-.47 2.13c-.19.87-.75 1.08-1.25 1.08-.46 0-.84-.1-1.11-.4zm1.89-1.34.16-.71c-.11-.18-.32-.28-.56-.28-.37 0-.64.33-.64.74 0 .31.21.51.52.51.2 0 .4-.12.52-.26zM45.56 61.11l.31-1.38c.01-.03.02-.09.02-.15 0-.18-.15-.27-.33-.27-.18 0-.36.13-.48.27l-.34 1.54h-.61l.31-1.38c.01-.05.02-.1.02-.17 0-.15-.12-.26-.34-.26-.18 0-.36.14-.47.27l-.34 1.54h-.6l.51-2.29h.6l-.07.3c.13-.14.36-.36.7-.36.45 0 .63.33.63.41v.01c.18-.22.44-.42.79-.42.35 0 .65.21.65.58 0 .06-.01.15-.02.19l-.35 1.57h-.59zM48.77 59.13l.06-.3h.61l-.51 2.29h-.61l.07-.28c-.19.23-.41.34-.69.34-.52 0-.87-.34-.87-.95 0-.69.43-1.45 1.21-1.45.31-.01.58.12.73.35zm-1.3.97c0 .33.22.54.51.54.21 0 .4-.11.53-.27l.18-.8a.638.638 0 0 0-.54-.27c-.4 0-.68.38-.68.8zM49.53 61.11l.51-2.29h.6l-.07.3c.2-.22.45-.36.81-.36l-.13.6a.88.88 0 0 0-.22-.03c-.22 0-.44.12-.57.27l-.33 1.5h-.6zM52.75 61.11l-.42-.9-.36.31-.13.59h-.6l.7-3.16h.6l-.41 1.85 1.06-.98h.77l-1.14 1.04.66 1.25h-.73zM53.84 60.14c0-.74.56-1.37 1.32-1.37.58 0 1.03.38 1.03 1.02 0 .13-.02.29-.05.37h-1.7v.06c0 .19.2.47.63.47.2 0 .44-.06.58-.17l.19.41c-.22.15-.53.24-.81.24-.73 0-1.19-.39-1.19-1.03zm1.81-.39v-.05c0-.23-.16-.46-.53-.46-.32 0-.57.26-.62.51h1.15zM56.61 60.67c0-.03 0-.1.02-.16l.26-1.17h-.39l.12-.52H57l.14-.63h.61l-.14.63h.46l-.12.52h-.46l-.22.99c-.01.03-.01.07-.01.09 0 .12.07.2.22.2.06 0 .14-.02.17-.05l.02.48c-.09.06-.23.1-.38.1-.41.02-.68-.14-.68-.48zM57.89 60.76l.34-.4c.13.16.47.36.8.36.2 0 .33-.12.33-.24 0-.34-1.16-.25-1.16-.93 0-.4.33-.77.94-.77.39 0 .75.15.97.37l-.31.38c-.11-.14-.39-.3-.67-.3-.21 0-.33.1-.33.22 0 .29 1.16.22 1.16.92 0 .44-.36.8-.99.8-.42 0-.83-.14-1.08-.41zM61.58 61.11l.39-1.77h-.38l.12-.52h.37l.03-.13c.1-.44.36-.79.88-.79.24 0 .45.07.6.22l-.3.35c-.07-.07-.14-.1-.26-.1-.18 0-.28.11-.33.33l-.03.12h.47l-.12.52h-.46l-.39 1.77h-.59zM63.08 60.13c0-.72.55-1.36 1.32-1.36.73 0 1.14.45 1.14 1.04 0 .71-.55 1.36-1.33 1.36-.73 0-1.13-.44-1.13-1.04zm1.84-.29c0-.33-.2-.54-.53-.54-.41 0-.68.39-.68.8 0 .33.2.54.54.54.39-.01.67-.39.67-.8zM65.72 61.11l.51-2.29h.6l-.07.3c.2-.22.45-.36.82-.36l-.13.6a.88.88 0 0 0-.22-.03c-.22 0-.44.12-.57.27l-.33 1.5h-.61zM71.48 61.11l.31-1.38c0-.03.02-.09.02-.15 0-.18-.15-.27-.33-.27-.18 0-.36.13-.48.27l-.34 1.54h-.61l.31-1.38c.01-.05.02-.1.02-.17 0-.15-.12-.26-.34-.26-.18 0-.36.14-.47.27l-.34 1.54h-.6l.51-2.29h.6l-.07.3c.13-.14.36-.36.7-.36.45 0 .63.33.63.41v.01c.18-.22.44-.42.79-.42.35 0 .65.21.65.58 0 .06-.01.15-.02.19l-.35 1.57h-.59zM72.76 60.13c0-.72.55-1.36 1.32-1.36.73 0 1.14.45 1.14 1.04 0 .71-.55 1.36-1.33 1.36-.73 0-1.13-.44-1.13-1.04zm1.84-.29c0-.33-.2-.54-.53-.54-.41 0-.68.39-.68.8 0 .33.2.54.54.54.39-.01.67-.39.67-.8zM77.42 59.13l.26-1.18h.61l-.7 3.16h-.61l.07-.28c-.19.23-.41.34-.69.34-.52 0-.87-.34-.87-.95 0-.69.43-1.45 1.21-1.45.29 0 .56.13.72.36zm-1.31.97c0 .33.22.54.51.54.21 0 .4-.11.53-.27l.18-.8a.638.638 0 0 0-.54-.27c-.4 0-.68.38-.68.8zM78.27 60.14c0-.74.56-1.37 1.32-1.37.58 0 1.03.38 1.03 1.02 0 .13-.02.29-.05.37h-1.7v.06c0 .19.2.47.62.47.2 0 .44-.06.58-.17l.19.41c-.22.15-.53.24-.81.24-.72 0-1.18-.39-1.18-1.03zm1.81-.39v-.05c0-.23-.16-.46-.53-.46-.32 0-.57.26-.62.51h1.15zM80.8 61.11l.51-2.29h.6l-.07.3c.2-.22.45-.36.81-.36l-.13.6a.88.88 0 0 0-.22-.03c-.22 0-.44.12-.57.27l-.33 1.5h-.6zM84.05 61.11l.3-1.36c.01-.04.02-.1.02-.15 0-.21-.17-.29-.35-.29-.25 0-.45.14-.58.27l-.34 1.54h-.6l.51-2.29h.6l-.07.3c.18-.18.43-.36.76-.36.44 0 .72.23.72.58 0 .04-.01.14-.02.19l-.35 1.57h-.6zM86.55 60.13c0-.72.55-1.36 1.32-1.36.73 0 1.14.45 1.14 1.04 0 .71-.55 1.36-1.33 1.36-.73 0-1.13-.44-1.13-1.04zm1.83-.29c0-.33-.2-.54-.53-.54-.41 0-.68.39-.68.8 0 .33.2.54.54.54.39-.01.67-.39.67-.8zM89.32 61.11l.39-1.77h-.38l.12-.52h.37l.03-.13c.1-.44.36-.79.88-.79.24 0 .45.07.6.22l-.3.35c-.07-.07-.14-.1-.26-.1-.19 0-.28.11-.33.33l-.03.12h.47l-.12.52h-.46l-.39 1.77h-.59zm1.55 0 .39-1.77h-.38l.12-.52h.37l.03-.13c.1-.44.36-.79.88-.79.24 0 .45.07.6.22l-.3.35c-.07-.07-.14-.1-.26-.1-.19 0-.28.11-.33.33l-.03.12h.47l-.12.52h-.46l-.39 1.77h-.59zM92.32 60.22l.11-.51h1.14l-.11.51h-1.14zM93.57 61.64l.35-.4c.15.2.45.31.74.31.28 0 .54-.13.65-.59l.05-.21c-.18.21-.42.35-.7.35-.46 0-.86-.27-.86-.93 0-.7.44-1.4 1.18-1.4.27 0 .57.14.74.36l.07-.3h.61l-.47 2.13c-.19.87-.75 1.08-1.25 1.08-.46 0-.84-.1-1.11-.4zm1.89-1.34.16-.71c-.11-.18-.32-.28-.56-.28-.37 0-.64.33-.64.74 0 .31.21.51.52.51.2 0 .39-.12.52-.26zM96.48 61.11l.51-2.29h.6l-.07.3c.2-.22.45-.36.81-.36l-.13.6a.88.88 0 0 0-.22-.03c-.22 0-.44.12-.57.27l-.33 1.5h-.6zM98.19 61.11l.51-2.29h.6l-.51 2.29h-.6zm.57-2.84c0-.26.22-.41.4-.41.19 0 .33.14.33.31 0 .26-.22.41-.41.41-.18 0-.32-.14-.32-.31zM101.41 59.13l.26-1.18h.61l-.7 3.16h-.61l.07-.28c-.19.23-.41.34-.69.34-.52 0-.87-.34-.87-.95 0-.69.43-1.45 1.21-1.45.29 0 .56.13.72.36zm-1.31.97c0 .33.22.54.51.54.21 0 .4-.11.53-.27l.18-.8a.638.638 0 0 0-.54-.27c-.4 0-.68.38-.68.8zM103.47 60.14c0-.74.56-1.37 1.32-1.37.58 0 1.03.38 1.03 1.02 0 .13-.02.29-.05.37h-1.7v.06c0 .19.2.47.62.47.2 0 .44-.06.58-.17l.19.41c-.22.15-.53.24-.81.24-.72 0-1.18-.39-1.18-1.03zm1.81-.39v-.05c0-.23-.16-.46-.53-.46-.32 0-.57.26-.62.51h1.15zM107.54 61.11l.3-1.36c.01-.04.02-.1.02-.15 0-.21-.17-.29-.35-.29-.25 0-.45.14-.58.27l-.34 1.54H106l.51-2.29h.6l-.07.3c.18-.18.43-.36.76-.36.44 0 .72.23.72.58 0 .04-.01.14-.02.19l-.35 1.57h-.61zM108.84 60.14c0-.74.56-1.37 1.32-1.37.58 0 1.03.38 1.03 1.02 0 .13-.02.29-.05.37h-1.7v.06c0 .19.2.47.62.47.2 0 .44-.06.58-.17l.19.41c-.22.15-.53.24-.81.24-.72 0-1.18-.39-1.18-1.03zm1.81-.39v-.05c0-.23-.16-.46-.53-.46-.32 0-.57.26-.62.51h1.15zM111.37 61.11l.51-2.29h.6l-.07.3c.2-.22.45-.36.81-.36l-.13.6a.88.88 0 0 0-.22-.03c-.22 0-.44.12-.57.27l-.33 1.5h-.6zM112.93 61.64l.35-.4c.15.2.45.31.74.31.28 0 .54-.13.65-.59l.05-.21c-.18.21-.42.35-.7.35-.46 0-.86-.27-.86-.93 0-.7.44-1.4 1.18-1.4.27 0 .57.14.74.36l.07-.3h.61l-.47 2.13c-.19.87-.75 1.08-1.25 1.08-.46 0-.84-.1-1.11-.4zm1.89-1.34.16-.71c-.11-.18-.32-.28-.56-.28-.37 0-.64.33-.64.74 0 .31.21.51.52.51.2 0 .4-.12.52-.26zM115.77 61.46c.05.02.15.04.23.04.12 0 .2-.04.28-.16l.14-.21-.41-2.3h.62l.24 1.59.96-1.59h.66l-1.67 2.66c-.25.41-.51.55-.89.55-.13 0-.28-.02-.38-.06l.22-.52z"/><g><path class="st1" d="M28.3 17.48h1.64V28.5h5.91v1.49H28.3V17.48zM38.1 17.48h1.64v12.51H38.1V17.48zM48.8 17.29c1.62 0 2.94.48 3.84 1.04v1.87c-1-.83-2.38-1.38-3.87-1.38-2.94 0-4.92 2.18-4.92 4.92 0 2.66 1.87 4.96 4.98 4.96.97 0 1.87-.22 2.56-.59v-2.92h-2.8v-1.43h4.44v5.17c-1.11.76-2.73 1.26-4.34 1.26-3.7 0-6.48-2.7-6.48-6.41-.01-3.69 2.7-6.49 6.59-6.49zM55.93 17.48h1.64v5.27h6.81v-5.27h1.64v12.51h-1.64v-5.75h-6.81v5.75h-1.64V17.48zM72.32 18.97h-4.2v-1.49h10.04v1.49h-4.2v11.02h-1.64V18.97zM80.25 17.48h1.64v12.51h-1.64V17.48zM85.04 29.99V17.48h1.55l5.24 6.95c.73.95 1.45 1.94 2.16 2.92l.03-.02c-.02-1.09-.03-2.35-.03-3.56v-6.29h1.59v12.51h-1.56l-5.24-6.95c-.73-.95-1.45-1.94-2.16-2.92l-.03.02c.02 1.09.03 2.35.03 3.56v6.29h-1.58zM104.63 17.29c1.62 0 2.94.48 3.84 1.04v1.87c-1-.83-2.38-1.38-3.87-1.38-2.94 0-4.92 2.18-4.92 4.92 0 2.66 1.87 4.96 4.98 4.96.97 0 1.87-.22 2.56-.59v-2.92h-2.8v-1.43h4.44v5.17c-1.11.76-2.73 1.26-4.34 1.26-3.7 0-6.48-2.7-6.48-6.41-.01-3.69 2.7-6.49 6.59-6.49z"/><g><path class="st1" d="M27.94 33.96c2.09 0 3.9.56 5.21 1.29v3.76c-1.43-.99-3.29-1.69-5.14-1.69-3.43 0-5.64 2.42-5.64 5.45 0 2.96 2.11 5.45 5.61 5.45.78 0 1.53-.14 2.09-.38v-2.56h-2.96v-3.1h6.58v7.89c-1.53.85-3.66 1.41-5.78 1.41-5.45 0-9.28-3.69-9.28-8.69.01-5.03 3.88-8.83 9.31-8.83zM37.11 34.22h3.73v13.74h7.44v3.26H37.11v-17zM73.88 34.22h4.95c4.91 0 7.09 1.5 7.09 4.32 0 1.74-1.01 2.82-2.56 3.38v.05c2.18.63 3.24 2.09 3.24 4.11 0 3.19-2.47 5.14-7.68 5.14h-5.05v-17zm5.71 7.04c1.55 0 2.61-.59 2.61-1.93 0-1.34-.82-1.93-3.43-1.93h-1.15v3.85h1.97zM79 48.02c3.1 0 3.87-.61 3.87-2.11 0-1.41-1.08-2.09-3.03-2.09h-2.23v4.2H79zM94.73 34.22h3.62l6.9 17h-3.99l-1.36-3.57h-6.86l-1.38 3.57h-3.83l6.9-17zm-.54 10.49h4.58l-.7-1.9c-.49-1.34-1.1-3.03-1.55-4.32h-.05c-.45 1.29-1.06 2.98-1.6 4.41l-.68 1.81zM107.34 34.22h3.73v13.74h7.44v3.26h-11.18v-17z"/><g><path class="st1" d="M56.16 45.22c-.52-.18-1.25.68-1.41-.22-.1-.02-.37-.54-.44-.41a.444.444 0 0 0-.08-.11c.01.03.01.06 0 .09-.16-.29-.35-.65-.41-.96-.03-.14-.25-.68-.26-.68-.02-.03-.56-1.04-.49-1.11.01.02.19.43.26.36.06-.07 0-.25.09-.3-.06.17.14.61.3.7.06.23.21.46.32.73.04.1.42.81.54.8.02.19.14.8.28.93.34-.26.94-.25 1.33-.5.16-.1.07-.24.3-.24.13-.11.19-.01.3-.14-.03-.09.32-.32.44-.34-.17-.38.5-.44.14-.84-.11-.18-.76-.24-.51-.66-.16.03-.21.41-.35.44.04.24-.64-.11-.49-.07.02-.08.01-.24-.05-.3-.06.08-.02.17-.06.26-.3-.45-.33-.95-.77-1.17.17 0 .76.33.73.34v.07c.06-.04.55.55.77.37.39-.29.19.14.42.19.18.04.45.04.58.04.15-.01.55.14.71 0 .25.03.3-.03.45.13.12.14.12.27.33.17-.25.25.36.19.34.17-.33.38-.08.01-.31.12.08.17.35.46.54.29.17-.14-.01-.34.21-.29-.25.36.68 2.87 1.1 2.85.12-.26.39-.33.36-.61 0-.06-.01-.83.05-.88.29-.23.64-.66.88-.87v.04c.01.04.43-.49.45-.52.02.29.24 0 .27.09a.15.15 0 0 0 .04-.11c.01.07.05.09.1.04-.09-.1.07-.07.07-.07-.04-.19-.05.02-.11-.07.1-.12 0 0 .03-.14.12.09.44.68.54.55-.02.15.18.23.23.37.06.16.06.68.12.48-.02.05-.03.09-.04.14.08-.03.03-.11.1.01.02-.05.08-.13.09-.04.05-.14.17-.08.1-.19.1-.01.11.02.13-.15.09.19.3.69.3.72.07.16.12.68.1.71-.02.45.06.38.29.74.16.25.09.47.31.73.15.33.31.18.32-.03 0-.05-.08-.46-.09-.48-.06-.13-.21-.25-.32-.32-.09-.06-.2-.24-.18-.13 0-.02-.09-.47-.22-.29.03-.16.01-.21-.05-.17.03-.06.07-.15.09-.25.02-.11.22-.68.22-.33 0 .01.49.3.48.32 0 .05.02.1.04.15.04-.08.17.04.25.05-.11.12 0 .21-.09.28.17.03.34-.32.41-.34.22.03.4-.36.38-.36.07.02-.3-.77-.38-.83-.33-.24-.32-.46-.21-.81.05.05.32-.12.32-.19.05.06.33.28.35.27-.07-.05-.08-.12-.03-.19.06.07.14-.02.18-.08.07.1.17-.11.21-.04.02-.02.04-.18.02-.21.09.11.55.11.57-.12.14-.09.11-.09.07-.18.05-.03.1-.03.14-.01 0-.01-.03-.15-.01-.07.08-.01-.06-.15.09-.1-.03-.13-.05-.12.04-.22-.06-.03-.02.04-.08-.03h.05c-.12-.14-.05-.03-.04-.1.08.02.05-.03.13-.02-.06-.07.07-.28.09-.22.02-.06.02-.2-.05-.23.05-.03.07-.06.1-.02.12-.26-.27.19-.01-.15-.05-.01-.25-.14-.3-.08.01-.02.24-.14.24-.14-.07-.1-.14-.18-.24-.26.06.03.12.05.18.07-.02.03-.7-1.07-.46-.93.01-.05.07-.14.04-.16 0 0 .16-.06.17-.05.01-.01.01-.01.01-.03.11.14.04-.08.07-.12-.12-.01-.3-.1-.4-.06.01.01-.03.11-.05.14-.13-.09-.17-.12-.26-.03a.14.14 0 0 0 0-.19c.07.2-.13-.19-.14-.24.15-.06.26-.4.38-.42.21-.04.18.42.13.52.15-.1.27-.2.4-.28.01.03.03.07.04.11.03-.13.09.08.15-.05-.08.2.01.42.09.48.01-.01.17-.02.11-.02-.01.06.28.32.08.18-.01.06.18.4.08.44.05.19.09.22.1.09.01.02.01.02.01.03.04-.05.05-.05.03.01.01 0 .06-.07.07-.08.45-.2-.26-.93-.33-1.18.15-.09.18-.54.23-.73.02.02.17.14.17.1.08.11.15-.14.14-.19.01.01.01.01.03.02.13-.67.06-1.68-.51-2.11.02.01.05.01.07.02.05-.05-.38-.33-.45-.34.01.02.1.27.05.13h.01c-.02-.03-.02-.03-.03-.06.02-.02-.01.19-.08.06.1 0-.03-.1-.02-.1-.03-.1-.04.08-.03.1-.11-.22-.51-.41-.28-.7-.01-.02-.01-.02-.01-.04.02-.03-.04-.17.04-.15-.04-.09-.06-.24-.08-.3.12-.06.25.01.33.08-.01-.09.09-.07.12-.02.11.01.08 0 .04-.03.04-.05.19.1.17.05.46.24.09.01.12.12-.01-.01-.01-.01-.01 0 .25.22.07.04.08.03.02-.02.04.04.06.02-.01-.01-.01-.01-.01-.03.02.01.11.06.09.03.01.01.01.01.02.01-.05-.05-.01-.03-.07-.07.01.01.01.01.01.02-.02-.02-.02-.02-.04-.03.01.01.01.01 0 .01-.02-.02-.02-.02-.01 0-.02-.02-.02-.02-.04-.03 0-.01 0-.01.02 0-.03-.02-.03-.02-.05-.05.01.01.01.01.01 0 .04.04-.07-.08-.03-.04-.05-.06-.05-.08-.02-.07-.02-.02-.11-.12-.06-.1a.572.572 0 0 1-.07-.08c.03-.04.06.02.08 0 .08.04.23.18.25.21.03.03.05.05.07.08.04-.04-.07-.09-.05-.1-.03-.03-.09-.09.02 0l-.21-.21c.14.1.18.13.12.08.02.02.02.02.04.03-.13-.09.26.24.23.27h-.02c.04.05.12.12.1.15.09.09.11.11.06.09l.04.06-.01-.01c.03.05.07.11.1.16-.03-.03-.05-.01-.07 0 .16.15.19.2.11.15.16.54.7.91.95 1.39a.92.92 0 0 0-.18-.43c.02.03.05.04.09.03-.01-.02-.24-.38-.11-.28-.02-.03-.32-.39-.28-.42-.03-.07 0-.04.09.11-.08-.2-.13-.26-.14-.16-.05-.05-.15-.24-.23-.28.17.2-.03-.03.03.05 0 0-.13-.13-.08-.09-.07-.08-.12-.2-.12-.18-.06-.07-.08-.08-.04-.05l-.06-.06c-.03-.03-.06-.06-.08-.09.03.01.06.04.08.07 0 0-.07-.09-.07-.1.05.05.09.1.14.15-.09-.1-.1-.12-.05-.07-.01-.01-.01-.01-.01-.02.04.04.09.08.14.13-1.03-1.07-2.32-2.06-3.71-2.59.02.02.03.02.03.01-.2-.1-.27-.13-.2-.08-.01-.01-.01-.01-.02-.01.01 0 .01 0 .01.01-.01 0-.13-.05-.08-.03 1.43.52-.33-.12-.15-.07-.01 0-.01 0-.03-.01.18.08-.4-.09-.22-.06l.01.01c-.05-.01-.05-.02-.09-.03.02.01.02.01.03.01 0-.01-.24-.12.02 0 .07.05-.26-.08-.18-.06-.16-.06.18.05.12.03-.2-.07-.4-.13-.61-.18.27.1.12.05.05.04.09.05.11.06.08.03 0 0 .11.03.04.01l.01.01h-.01c-.02-.01.3.11.14.06l.01.01c-.23-.08-.01-.01-.14-.05.13.04.16.06.1.05.01 0 .01 0 .03.01-.07-.02-.08-.02-.03 0 0-.02-.33-.1-.36-.11 0 .01.03.03.05.04-.12-.04-.24-.07-.36-.11.09.06.23.21.12.14-.24-.04-.3-.14-.42-.16.16.06-.06.02-.16-.04.05.02.1.03.15.01-.17-.01-.21-.07-.32-.11-.05-.05-.09-.06-.09-.02 0-.02-.09-.02-.09-.02-.28-.1.1.04-.07-.01.04.02-.24-.01-.29-.04-.11-.01-.08.01.09.06 0 .01-.12-.01-.1 0-.06.01-.49-.02-.49-.06.2 0-.53.01-.47 0 .13.06-.1-.03-.15-.04.08.07.03.07-.16.02 0-.11-.14.01-.16.01.06 0 .12 0 .17.01-.03 0-.17 0-.12.04-.08.04-.33.02-.15.09l-.12.03c.04-.06-.02-.09.07-.1-.01-.02-.01-.02-.03-.04.11 0 .14-.02.08-.04.07-.05.06-.06-.02-.04.04-.01.04-.01.08-.01 0-.01 0-.01-.01-.01.02-.02.04-.03.07-.02-.03-.01-.03-.02 0-.02 0-.03.06-.01-.01-.05h.01c-.06 0-.13-.01-.19-.02.05 0 .1.01.15.01-.24-.03-.3-.04-.18-.03h-.02c.01 0 .01 0 .01.01-.06-.01-.4-.04-.27-.03-.11.01-.21.01-.32.02.18.02-.21.05-.06.02 0-.06-.22-.02-.34-.01.38-.08-.27-.01-.17-.01-.04.01-.05.01-.01.01-.07.01-.08.02-.03.03h-.03c.13 0 .16.01.08.02.06.01.12.01.18 0-.11.01-.23.01-.34.04.1.01.08-.01.19.01-.05.02-.06.02 0-.01-.02-.01-.26 0-.14.01-.06 0-.06 0-.02.01-.03 0-.28.08-.16.01-.25-.01-.32 0-.23.03-.16.04.04 0 .04.02-.17.04-.39.07-.54.17.23-.04-.03-.01.06.01-.03.02-.43.12.03.05 0 0-.11.02-.11.03.16-.04.22-.04.17.01.23.03-.18.07.05.1-.14.01-.16-.02-.04-.08-.17.02-.56.14-.62.2h.05l-.01.01c.06.03.28.09.28.09.05.02.47.28.28.25.09.03.17.06.26.07 0 0-.4-.04-.29-.08-.01-.08-.1-.02-.13-.03.11-.07-.1-.07.03-.13-.04-.01-.03-.03 0-.05-.24.03-.47.03-.71.06.04.01.08.01.13 0-.08.18-.26-.06-.22.11.13-.01.26 0 .38.03-.16.01-.31.02-.47.04.05-.05-.01-.05-.05-.07.08-.05-.04-.14-.09-.11.06.09-.02.17-.08.24.25.04.1.27.28.31.1-.04.67-.03.5.05.07.11.12.09.24.06-.1.05-.35.03-.28-.08-.09.01-.12-.01-.1-.07-.13-.02-.22.03-.27.15.28.08-.12.29-.09.38.01.05-.45.04-.52.03-.02.01.46-.08.26-.03.07.03.22-.14.18-.15.06-.04.09-.2.08-.24 0 0-.27-.05-.18-.12-.12-.08-.06-.2-.23-.27 0-.01.04-.18.05-.19-.02-.06-.39.06-.33.04-.04 0-.23.33-.24.37.04.02.08.04.12.04-.05.01-.06.11-.04.16.08-.12.23.06.35.02-.19.09.02.11-.18.1-.07 0-.26-.05-.25-.05-.18.03-.41 0-.63.1.01.07.04.08.07.04-.01.05.02.07.07.06-.35-.08-.1.05-.18.11-.08.01-.08-.08-.05-.09-.18.05-.46.34-.65.3.1-.17-.01-.01.13-.15-.13 0-.18.04-.14.1-.06.02-.07.02-.03-.02-.04.03-.04.03-.07.05.01.02.01.02.03.03-.03.02-.03.02-.05.04-.02-.04-.56.38-.75.38-.07.13.25-.29.14-.2-.05.01-.24.1-.27.05.02.03.14.1.06.13 0 .01-.05.27-.03.3-.1-.16-.58.18-.44.38-.21.07-.27.07-.19 0-.08-.02-.19-.03-.19.09.05.05.09.04.13-.01.02.15-.13.11-.14.12l-.04.02c.04-.08-.06-.02-.11-.04.02-.04.03-.15-.04-.11.04-.03.08-.07.1-.13-.08-.03-.24.08-.1-.03-.04.01-.07.03-.11.04.07-.05.07-.1 0-.09.02-.01.18-.05.17.01.07-.05.1-.05.1 0 .21-.15.52-.08.6-.39.06-.01-.59-.07-.57-.03-.01 0-.01 0-.02.01.09.11-.18.08-.09.06l.03-.03c-.05.04-.06.05-.03.02-.17.11-.01-.03.03-.04-.07.02-.19.1-.18.08-.05.05-.06.05-.03 0-.07.07-.09.08-.06.02-.01.01-.01.01-.02.01.01-.01.01-.01 0-.01-.17.11.17-.13.18-.13-.03-.04-.18.11-.06 0-.06.06-.08.07-.06.03-.01 0-.01 0-.03.02.09-.12-.13.17-.08.05-.08.06-.08.05.01-.02-.17.1.03-.02-.04.01-.03.02.14-.11.04-.04.04-.06-.06.03-.08.05.01.01-.05.09-.07.06.15-.13-.11.12-.15.15.06-.09.14-.21.08-.13-.08.04-.14.14-.2.2l.01-.01c.01.01-.02.02-.02.03-.05-.06-.11.08-.08.07 0 0-.08.06-.07.03-.01.01-.11.13-.11.12 0 0 .08-.09.08-.1-.04.03-.07.07-.11.11.13-.16-.08.05-.01.01-.07.1.03-.01-.03.02.04-.07-.08.04-.01.01 0 0-.16.12-.1.09-.03.03-.14.14-.14.13.02.03.05.01.08-.06 0 0-.21.19-.15.13l.01-.01c-.04.04-.04.04 0 .01-.02.03-.02.04-.02.01-.07.07.03-.05-.07.08.11-.12.03 0 0 .02v-.01c-.03.03-.07.09-.01.04-.02.05-.14.11-.12.13-.04.04-.05.06-.09.1.01 0 .01 0 .02-.01-.01.01-.01.01 0 .01l.01-.01c-.03.04-.04.05-.03.03-.05.04-.06.05-.03.03 0 0-.09.15-.1.15.07-.06-.12.15-.15.18 0-.01 0-.01.01-.02-.16.18-.2.24-.12.16-.04.07-.02.06.04-.02l-.01.01c.04-.05.09-.09.13-.14-.11.07-.13.1-.07.09 0 0-.13.16-.14.16.01-.01.02-.03.01-.05-.1.08-.13.11-.07.09-.05.04-.05.06-.02.04-.01.01-.01.01-.01.02l.01-.01-.02.02v-.01c-.01.01-.01.01-.01 0v-.01c-.02.04-.02.05.01.04-.01 0-.01 0-.02.01v-.01c-.02.01-.02.01-.03.02v-.01c-.05.05-.05.06-.01.03-.01.01-.01.01-.02.03.09-.09-.03.02-.04.03.01-.01.01-.01 0-.01-.06.06.02.01-.03.07 0-.01 0-.01.01-.03l-.06.06.01-.01c-.03.05-.04.05-.02.01-.06.06-.03.06.04 0-.13.09-.16.12-.1.1-.01.02-.01.02-.02.03.02.01.03-.01 0 .01-.08.11.06-.04.07-.04.09-.08-.02.03.06-.07-.02.02-.03.03-.01.04-.05.07-.09.09-.1.09-.11.05-.05.03-.09.12.14-.15.02 0 0 .05.29-.42.04.01.06-.07 0 0-.09.12-.04.09-.05.07-.06.09-.05.05-.1.13.05-.04 0 .04l.01-.01c-.05.07-.04.08 0 .03-.03.03-.11.1-.08.12.05.03.1 0 .11-.02.02-.02.2-.22.15-.25.05.04.09-.05.08-.06.02-.03.04-.07.06-.1-.09.31.04-.13-.06.24.06-.03 0 .17.01.24.02-.01.02-.01.03-.02-.02.04-.05.17-.07.2.32-.09.3-.52.46-.65-.02 0-.02 0-.03-.01.06-.08-.07-.04.06-.05v.01c.02-.03.22-.33.18-.31.01-.01.01-.01.01-.02-.02.01-.03 0-.02-.03-.03.02-.13.1-.12.11.11-.08.13-.12.06-.1.07-.12.12-.34.23-.41.13-.16.17-.2.12-.11.05-.05.21-.25.21-.25-.02-.02.07-.13.03-.11.01-.01.01-.01.01-.02.01.01.08-.06.05-.05 0-.02.08-.09.07-.06.03-.05.12-.05.19-.08.04.04-.05.07-.01.11-.02-.03-.52.53-.48.56-.14.2-.16.28-.06.24-.05.08-.04.09.04.02-.01.04.03.03.05.02 0 .01 0 .01-.01.02.02-.01.02-.01.04-.04-.04.13-.04.15.02.06v.01c.08-.06.16-.13.23-.2-.05.15.03.03.01.01.08-.1.29-.07.25-.11.04.01.06.02.04.05.04-.05.08-.05.1 0-.02.03-.17.1-.2.13.05.05-.25.1-.24.08-.05.08-.31.43-.17.28-.02.11-.07.21-.15.29-.08-.36-.41.49-.25.32-.04.14-.15.08-.16.19.02-.01.04-.01.05-.03-.04.05-.08.09-.14.12.02-.02.04-.04.06-.07-.23.21-.01-.09-.11 0v-.01c-.17.08-.26.26-.41.35 0-.01-.02-.13-.02-.13.05.03-.14.11-.04.04-.03.07-.05.09-.05.05-.14.13-.16.13-.07-.01-.02.08-.04.09-.06.05-.02.04-.04.06-.01.01-.01.01-.01.01-.03.01.04-.03.04-.05 0-.06-.02-.01.12-.25.14-.24.12-.07-.02-.06-.02-.05.04-.07.07-.14.11-.22-.03.04-.26.23-.2.27.01-.05.05-.09.1-.11-.03.03-.05.1-.08.11.05-.09-.16.16-.12.2.07.04-.06.21-.01.14-.04.12-.03.08-.08.2.01-.11-.05.05-.08.03.01-.08-.3.38-.28.37-.04.08-.35.44-.36.5-.01.01-.01.01-.02.01 0-.02 0-.02.01-.04-.03.03-.08.21-.1.2-.02.04-.03.04-.03 0-.04.04-.17.29-.04.18 0 .01 0 .01-.01.02l.01-.01c0 .02 0 .02-.01.05l.03-.03v.01c-.02-.01-.04.1 0 .11-.01.09-.02.11-.03.05.01.15.01-.06.02.15-.14-.05-.03.34-.18.29-.02.02-.13.09-.14.04-.02.02-.22.2-.16.22-.02.05-.02.06 0 .03-.02.06-.03.07-.01.05-.07.15-.16.65-.13.59-.02.08-.03.16-.05.23.11.03.06-.2.11.1.18-.21.33-.28.38-.61.1-.59.46-.73.74-1.1.08.06.19.51.34.45.01.03.28.61.16.57.1-.2.06-.32.14-.51.09.04.06 0 .11.11.07-.23-.16-.18-.17-.35-.31.03-.29-.42-.18-.6.09.04-.05.12.04.16.09-.19.2.24.21.23.33.15.07.26.26.48.05.07.3.36.28.31.01-.01.01-.01.02-.01.01.06-.11.07-.14.02-.04.05.02.32.05.23.03.02.05.05.05.1.04-.21.18.15.03-.2.06.02.01.04.1.03-.04-.02-.06-.05-.06-.1.12-.05.13-.2-.03-.19 0-.01.06-.16.06-.06.04-.11-.14-.2 0-.29-.04.05-.02.09.06.12-.09-.12.03-.02.04-.02-.05-.05-.04-.06.04-.04.03-.23.07-.1.29-.14a.36.36 0 0 0-.07.1c.05-.05.31-.21.34-.26-.53-.27.4-1.01.37-1.09l.04-.04s-.02.12 0 .11c.07.02.13.01.19-.02.05.08.01.14-.12.18.13 0 .32.24.53-.13-.08.01-.29-.06-.26-.07.01.05.04.1.08.14-.01.01-.2-.11-.2-.12 0-.02.2-.12.2-.11-.02.02-.03.04-.04.07.04-.03.41-.23.41-.25l.15-.06c-.02.09-.13.16-.2.17.01.05.04.08.09.07-.04.07-.06.08-.06.03-.1.08-.06.14-.18.2.31.22 1.09.53.33.78-.2.06-.35-.06-.51-.07-.16-.01-.62.08-.81.23-.03.08 0 .1.07.08-.01-.01-.25.17-.23.09-.09.03-.37.25-.12.19 0 .01-.09.17.01.11.01.11-.05.09-.08.08-.01.04.07.25.1.24.04.09-.14.1.1.05-.12.15.04.04.23.12.07-.01.1-.06.08-.13.13.01.21.13.34.12.15-.03.26-.17.42-.2.02.24-.11.53-.14.78.13.04-.41.42-.4.4 0 0-.12-.11-.03-.08-.13-.13-.29.08-.39.13-.07-.07-.17-.09-.26-.1-.53-.06-.66-.42-.85.21-.1.33-.56-.29-.69-.28-.09.01-.35-.1-.25-.23.06-.07.17-.55.04-.38 0-.04-.01-.07-.01-.11-.03.02-.28.2-.29.1-.12.08-.64.4-.63.42-.03.06-.14.14-.11-.01-.42.54-.48 1.69-.57 2.27v.04-.02c.01.15-.01.98.01.98.01 0-.01.08.01.08.01.04.01.05 0 .02 0 .12.01.15.04.11 0 .01-.01.07 0 .07-.02.3.17.81.36 1.05.02-.07.14-.11.18-.04-.05.16.29-.1.34-.09.06.01.49.47.49.33.05.04.08.16.13.11.02.07.05.53.03.53.01.03.06.11-.01.03 0 .02.04.22-.04.11.16.47.07.06.11.2-.18-.11.15.08.02.13.05.06.6.92.44 1 .19.33-.02.83.08 1 .08.27.32.79.45.93.14.38.51 1.12.71 1.32-.03-.15.16.36.12.2-.02.02.26.19.23.13.07.07.1.08.1.03.01 0 .01 0 .03.02v-.02c.21.02.39.26.59.06.35.06.32-.66.31-.74.19-.04.27-.17.31-.21.04-.08.03-.16-.02-.24.03.14-.11-.31-.14-.36.09.05.3-.13.29-.21.02.12.46-.28.49-.32-.07-.09.06-.67-.11-.81-.18-.15-.28-.7-.23-.9.12-.53.75-.89 1.11-1.25.36-.35.85-1.16.78-1.65m13.12-9.79c.01.01.02.03.04.04-.01-.01-.02-.03-.04-.04m-6.41-3.45c.01 0 .16.03.16.03-.05-.01-.1-.02-.16-.03m.2.03c.17.04.33.07.49.11a.36.36 0 0 0-.11-.02l.07.02c-.13-.03-.36-.1-.36-.08-.04 0-.06 0-.05-.01-.01 0-.03 0-.04-.02m8.64 16.51c-.04.08-.01 0 0 0m-.3.65c0 .04-.01.06-.03.05.01-.01.01-.01.01-.02l-.01.01c0-.01 0-.01.01-.02l.01.01c.03-.07.08-.18.07-.16-.01.02-.01.02-.02.05l.01-.01c-.01.04-.01.04-.03.07l.01-.01-.03.03M57.4 32.29c.03-.01.06-.01.08-.02-.02.01-.05.01-.08.02m1.4-.33c.14-.03.29-.05.43-.07 0 .02.02.02.06-.01-.06.02-.42.07-.49.08m.59-.09c.11-.01.46-.04.4-.03-.01 0-.2.02-.22.03h.01s-.15.03-.15.01h.01-.02l.01-.01h-.02c-.01 0 .17-.02-.02 0m9.28 10.79c.03.07-.07.01 0 0m.03-.01.01-.01c.01.04 0 .05-.01.01m.12-.1c.01.07.06 0 0 0m.26-.3c.01-.05.03-.1.07-.14.01.04-.05.2-.07.14m.12-.33c.04.08.04.08 0 0m.02-.07a.5.5 0 0 0 .08-.07c0 .08-.03.1-.08.07m.11-.48c.09.1-.09.02 0 0m.03-.08c.02-.01.03.22 0 0m-.87-.92c.01 0 .01 0 .01.01-.01 0-.01 0-.02.01.01 0 .01-.01.01-.02m.05.11c.01-.01.01-.01.01-.03.02.05.02.05-.01.03m.21-.08.02-.02c0 .05-.01.06-.02.02m.09-.03c.03.08.03.08 0 0m-.26.31c.04-.01.08-.01.12-.02-.03.07-.07.08-.12.02m.37-.23c.03.02.02.15-.01.12.01-.04.01-.08.01-.12m.38-.32c.01-.01.01-.01.01-.02 0 0-.01.01-.01.02m.23.4c.01-.01.01-.01.01-.03 0 .03 0 .04-.01.03m.07-.04c.04-.02-.02.23 0 0m-.22.13c.01-.02.01-.02.01-.03.13.14.03-.09.14-.03.12.07.08.29-.03.13-.05.06-.05.11-.02.18-.13-.1-.1-.12-.1-.25m.38-.93c.02.04.03.08.02.12a.502.502 0 0 1-.02-.12m-.23-.88c.01-.07.01-.07 0 0m-.08-.68c.01.03.01.03 0 0m.65.39c.03-.02.04-.02.03.01-.01 0-.02-.01-.03-.01m-.07.02c-.01-.06-.02-.12-.04-.18.05.06.02.07.04.18m.04-.29c-.01-.03-.03-.11.02-.04.11-.07.06.04.01.07 0-.01-.01-.01-.02-.02 0 .04 0 .08-.01.12-.03-.05-.05-.1 0-.13m.1-.14c-.01-.08 0-.11.04-.08-.16.42.02.04-.04.08m.07-.24c.02.04.01.06-.01.05l.02.04c0-.03-.01-.06-.01-.09m0-.05c-.01.01.03.05 0 0m-.02-.08c.03.09.02-.01 0 0m-.04-.23c.02.07.02.07 0 0m-.02-.06c.04.05.03.02 0 0m-.02-.08c.02.13 0 0 0 0m-.06-.24c.02.05.03.11.05.16-.06-.07-.07-.09-.04-.07.05-.03-.04-.07-.01-.09m.01 0v-.02c.04.05.04.06 0 .02m-.08-.05c.05.04.05.04 0 0m.7.2c.01-.01 0-.01-.01-.02.01.02.04.07.01.02m-.1-.15c.06.1 0 .02 0 0m-.49-.62c.03.1.06.14.09.11-.02-.1-.05-.14-.09-.11m-.15-.15v-.01l.15.18c-.01-.05-.03-.06-.04-.05-.53-.64.01.03-.11-.12m-.64-.75c-.02-.02-.12-.13-.1-.15 0 0 .11.1.06.08.01.02.02.05.04.07m-.98-.5c-.01-.01-.01-.01-.01-.02.02 0 .03.01.01.02m-.51.74c-.08-.13.09-.05.06-.02.06.08-.06.03-.06.02m-.09-.04c-.03-.04 0-.02.01 0h-.01m.2.13c0-.03 0-.03.02-.01-.01.01-.01.01-.02.01m-.04-.03c0-.01.07.08 0 0m.61.29c.07.1.04-.04.03-.03a.353.353 0 0 0-.13-.14c.06.04.07.04.02-.02 0 0 .47.5.24.28.12.17.15.22.09.14-.04.04.17.27.16.26.18.2.34.47.48.7a.475.475 0 0 0-.23-.19c.13.16.35.57.41.77-.05-.11-.28-.29-.11.01-.33-.31-.34-1.17-.73-1.37-.04-.03-.25-.39-.23-.41m1.17 2.79c-.03.01-.15-.43-.16-.44.2.02.04-.26-.06-.44.02 0 .03-.01.01-.03.06.02.45.52.45.3.09.15.07.24.08.31-.13-.01-.05.09-.06.21-.08-.12-.25-.23-.34-.18.01.08.11.11.16.17-.06 0-.09.03-.08.1m-.49 2.19c.03-.06-.1-.22-.04-.19.03-.09.01-.16-.05-.23-.01.08.03.05.02.12-.23-.21.33-.82.49-.6v-.03c.01.01.01.01.02.01.03-.1 0-.25 0-.35 0-.12.12-.03.03.01.02.04.05.07.07.11.01-.1.24-.36.13-.45-.02-.03-.03-.34-.09-.23-.04-.05-.05-.24-.04-.31a.5.5 0 0 1 .08.07c.01-.1 0-.12-.03-.05-.11-.17.03 0 .03-.06.16.17.25.51.28.72-.08-.1.2.68.03.74-.01-.06-.02-.13-.04-.19-.05.07-.06.14-.04.23a.254.254 0 0 0-.08-.1c.02.22-.12-.01-.15.06-.08-.15.08.2-.08.26a.248.248 0 0 1-.08-.27c-.13.05-.32.03-.34.17-.04-.02-.09-.03-.13-.04 0-.03.34.69.13.55.05.05.04.09-.02.11-.02-.04-.01-.13-.04-.16-.04.05.06.23-.06.1m-18.8 5.13c.11-.14.03 0 0 0m-1.5-2.18zm.18-2.17v-.01.01m-.08.61c0-.02.02-.13 0 0m-.01.08c0 .05 0 .05 0 0m.01-.04v.01-.01m.01.01v-.04c.02-.05.01 0 0 .04m.02.03c-.02-.03.03-.14 0 0m.05-.18c0-.02 0-.02.01-.05.01.05.01.01-.01.05m-.02.12c.07-.21-.01 0 0 0m19.38 7.1c-.03.01-.05-.03 0 0m-1.26.99c.02-.01.02-.01 0 0m-.25.1c.02-.02.02-.02.04-.03-.01.03-.02.04-.04.03m-.55.89c0-.11 0-.11 0 0m2.12.73c.07-.07.1-.09.09-.04.17-.08-.16.11-.09.04m.17.3c.04-.04.04-.04 0 0m1.79-2.15c.04-.07.04-.07 0 0m.13-.26c.03-.06.06-.11.09-.17-.04.05-.06.11-.09.17m.03-.25v.03-.03m-.06-.55v.05c.06-.16.02-.04 0-.05m.02-1.09v.01c.01 0 .01 0 .02-.01h-.02m-.02.09c0-.04 0-.04 0 0m-.52 1.02c.01-.08.09-.07 0 0m-.18-.1c.04.02 0 0 0 0m-.01-.02c.01 0 .01.01-.01.02 0 0 .01-.01.01-.02m-.02.01c.01 0 .01 0 0 .01v-.01m.05-.25c.05-.03.02-.01.04-.02 0 .01-.06.13-.04.02m-.03-.01c.04-.03.02.02 0 0m.12-.38c.07-.1.07-.1 0 0m-.04.04.02-.02c-.01 0-.01.01-.02.02m1.42-.91c.08.04-.06-.02 0 0m.09-.95c.01-.06.01-.06 0 0m.01.18c-.04-.05.04-.06 0 0m.48.65c0-.01 0-.01.01-.03 0 .01-.01.02-.01.03m-.51.46c0-.03.01-.04.03-.03-.02.01-.02.02-.03.03m-.05.02c.01.07.01-.01.01-.01l-.01.01m.05-.32c-.01.07.02.01 0 0m-.14.18c.02.09.06-.05.02.01-.01-.02-.01-.02-.02-.01m-.01-.05c0 .01 0 .01-.01.03.04-.03.04-.04.01-.03l.01-.01-.01.01m-.02 0c0 .01 0 .01.01.02.01-.06.01-.06-.01-.02m.47-.02c-.01.03-.01.03 0 .01v.01c.02-.03.01-.02 0-.02m.09-.21c-.02.06-.02.08 0 .05v.01c.04-.04.03-.05 0-.06m.04-.23c-.03.12-.03.16 0 .11-.01.07.02-.1 0-.11m-.03.1v.02c.01-.03.01-.03 0-.02m-.04.06c.04.02.05 0 .01-.01l-.01.01m.01-.19.01-.01c-.03.16.06.05.01.03 0-.02 0-.02-.01-.04 0 .01-.01.01-.01.02m-.06.14c-.01 0 .03.01 0 0m-.02-.02c.05-.18.01.09.01-.01l-.01.01m0-.04c-.03.11.02 0 0 0m-.01-.02c-.01.04-.01.04 0 0m.03-.14c-.02.05-.01.06.01.04-.01.08.03-.03-.01-.04m-.07-.11v.17c.05-.11.06-.15.01-.12.02-.06.01-.08-.01-.05m0-.06c0 .08 0 .08 0 0m-.01-.04c.02-.04.02-.04 0 0m-.08.03c.04-.2-.1-.14-.08-.24.02.01.06.07.07.06-.01.07.01.09.04.07 0-.01-.03.22-.03.11m-.18.14c0-.05 0-.05 0 0m-.15.09c-.05.13.07.05.06.11.03-.03.2-.16.17-.17.01-.01.08-.24.04-.18l-.01-.01c.01-.01-.22.35-.14.18-.01-.01-.05.1-.12.07m-.05.03c.02.05.02.05 0 0m-.04-.03c0 .05 0 .05 0 0m-.08-.05c0 .01 0 .01.01.01.01-.02.01-.02-.01-.01m.12-.41c.03.03.04.03 0 0m-1 .09c.01-.01.01-.01.02-.01v.02c.07-.03-.01-.11-.07-.08.04 0 .06.02.05.07m-.06.1c.05.03.1.02.15-.01-.01-.01-.15.01-.15.01m.21.93c0-.02.02-.18.05-.17-.04.02-.08-.22-.08-.26-.01.01-.01.01-.02.01.01-.04-.24-.12-.3-.11.01-.11-.01.03-.04-.06-.05.07-.05.04-.02-.09 0 .11-.04.18-.12.19-.24-.1.15-.27.15-.34-.04 0-.14.07-.14.03-.04.01-.14-.09-.17-.1.35-.4.26-.05.37.18.09-.15-.01.06.07.06-.07.01.68-.57.58-.23.06.02.17.05.22.07l.01-.01c0 .03.05.04.07.05l.01-.01c0 .04.01.05.02.02.07.02.07.18.18.22 0-.02-.08.22-.07.13-.03.13-.02.18.04.15-.01.03 0 .03.01.01 0 .02 0 .16.03.11v.02s.04.05.05.06c-.04.05-.02.06.04.04.02.01-.12.08-.1.06.01-.04-.05.02-.04-.02-.05.09-.2-.25-.26-.28-.04.09 0 .05-.07.02-.02.08-.03.13-.02.12-.05.08-.09.1-.11.05v.03c.02-.01.03-.01.04 0 .08.14-.17.11-.17.12-.07.03-.11-.01-.1-.11-.05 0-.09.01-.11.04m-.03.03c.04.02-.05-.02 0 0m-.1.01c.08-.02.13-.07.15-.15-.09.01-.14.06-.15.15m-.29-.26c.03-.03.02-.05 0-.06.07-.06.07-.04 0 .06m0 .04c.03.01-.01.05 0 0m-.03-.03c.06.02-.01.05 0 0m.02-.01c.02-.01.02-.01.04-.03 0 .07-.02.08-.04.03m-.04.11c.08-.11.03.01 0 0m-.31.72s.01-.01 0 0c.02.04.01.04 0 0m-.25.1v-.02s.1.02.1 0c.01-.02.01-.02.02-.03.02.05-.07.13-.12.05m.01.05c-.08.08-.03-.14 0 0m.32-1.82c-.1-.04.02-.06.07-.04-.01.02-.12.02-.07.04m-.01.15c-.07-.02.07-.13 0 0m-.16.12c.08-.12.12.05 0 0m-.15-.13c-.03-.03-.15-.57.01-.52-.01.03-.07.21-.06.23.08-.06.09-.09.05-.07.02-.04.05-.07.1-.08 0 .19-.11.1-.02.24-.19-.08-.11.1-.08.2m-.14-.04c-.02-.01.03-.14 0 0m.01.04c-.01 0-.01 0-.02-.01.01-.01.01-.01.01-.02 0 .01 0 .02.01.03m.02-.01c-.04-.09.09-.04 0 0m-.03.13c.03-.06.06-.06.09.01-.04.03-.07.03-.09-.01m.03.34c.17-.13.04.08 0 0m.01-.05c-.04-.12.4-.2.34.02-.02.01-.2-.09-.21-.06-.1.04-.08-.05-.13.04m-.03-.03c0-.01 0-.01.01-.02v.02h-.01m-.2.01c.02.01.1 0 .13-.01-.03.18-.21.09-.13.01m-4.8-1.29c.02 0 .02 0 .01.02 0-.02 0-.02-.01-.02m.05-.02c.01-.01.01-.01.02-.01 0 .03-.01.04-.02.01m.54-1.12c0-.06 0-.06 0 0m-.04.02c-.01-.07-.01-.07 0 0m1.93-1.9c.01-.03.14-.02 0 0m1.79.41c-.06-.13.1 0 0 0m-.24-.63c-.21-.29-.04-.44.03-.72.16.13-.04.72-.03.72m.76 3.57c.03-.05.03-.05 0 0m.2-.24c.01-.13.04-.1 0 0m-.17.03c.03.13.03.13 0 0m.07-.57c0-.01 0-.01.01-.02-.01.05-.01.05-.01.02m.03-.48c.01.04.01.04 0 0m.02-.01c0-.09 0-.09 0 0m-.05-.02c0-.04 0-.07-.01-.11 0 .04.01.08.01.11m-.06 0c-.03-.02-.03-.03-.01-.05.01.02.01.03.01.05m-.44.57c-.05-.08.1-.37.2-.35.01.04.03.08.07.11.12-.14.12-.14.21-.33.05.09.11.5.1.49-.01.05-.02.09-.02.14-.12-.36 0-.09-.08-.06.03.07.02.14-.04.19-.02-.04-.16-.26-.23-.38-.02.03-.03.06-.02.1-.03-.03-.12-.07-.11-.08-.04.06-.07.11-.08.17m-.05.05c.07-.04.07-.02.03.06-.02-.03-.02-.03-.03-.06m-.18.07c0-.04.05-.06 0 0m.03.06c.06-.08.13.04 0 0m-.15.17c.08-.09.08-.09 0 0m-.06.04c0 .06 0 .06 0 0m.9-1.13c.03.01 0 .04 0 0m-.18-.25c.01-.06.04-.09.11-.08.03.08.02.22.07.28-.15-.03-.08-.09-.18-.2m0 .11v-.02c.05.06.05.06 0 .02m-.01.02c.09.07.11.09.15.22-.05-.03-.07-.01-.05.04-.03-.02-.04-.19-.07-.15l-.03-.11m0 .15c.04-.05.02.05 0 0m.05.25c.02-.01.03 0 .03.02-.01-.01-.02-.01-.03-.02m-.11-.09c.05-.1.08-.1.09 0-.03.04-.06.04-.09 0m-.06.11c.06.01.06.01 0 0m.01-.05c-.01-.11.02-.22.08-.31 0 .1-.03.21-.08.31m-.07-.23c.03-.02.03 0 .05-.03.03.03-.04.35-.06.34.01-.16 0-.13.01-.31m-.07.07c.04-.07.04-.07 0 0m-.09-.25c0-.02.14.06.18.01-.01.11-.06.18-.15.22-.33-1.04.09-.02-.03-.23m.02-.57c.03.02.03.02 0 0m-.04.03c0-.01.01-.13.04-.07-.01.09-.02.12-.04.07m.31.19c.11-.21.04.03 0 0m-.08.19c.04.04.07.09.1.13-.08.06-.01-.16-.13-.01 0-.02.01-.12.03-.12m.03.02v-.02c.05.05.05.06 0 .02m-.08-.11c.03.08.03.08 0 0m-.06 0c-.05-.05-.09-.11-.14-.16-.06.05-.16.06-.16.05.04.07-.01-.25-.01-.22-.09.17.03-.04-.07.02-.04-.06-.07-.44.01-.23 0-.15-.03-.29.02-.44.05-.13.18.1.23-.06.04.06.06.52.02.44-.12-.01-.09.4.02.42-.02-.06-.02 0 .09-.07.23.36-.04-.11.18.13-.02.02 0 .32.02.16-.07-.01-.15-.21-.22-.19 0 .05 0 .1.01.15m-.01.13c.01 0 .01 0 .02-.01 0 .03-.01.03-.02.01m-.06-.05c0 .04-.01.08-.01.11 0-.04.01-.07.01-.11m-.05-.13c.02-.15.1.11 0 0m-.22-.01c.09-.03.26.13.15.2 0 .11-.13-.18-.15-.2m-.05-.08c.05.06.05.06 0 0m-.02.32c.03-.13.09.2 0 0m-.01.07v-.02c.04.03.03.11 0 .02m0 .25c.05-.08.04.06 0 0m-.36.4c.01-.09.27-.46.32-.55.06.1-.18.59-.32.55m-.03.14c-.04-.12.05-.08 0 0m0 .1c.01-.03.03-.03.05-.01-.04.03-.05.04-.05.01m1.15 1.55c.03.07.03.07 0 0m-.05-.06c.04 0 .08 0 .12-.01-.05.03-.08.04-.12.01m-.15.03c.03-.04.07-.05.12-.04.01.05-.09.05-.12.04m-.08.02c.01-.01.01-.01.02-.01 0 .03 0 .03-.02.01m-.09.02c.02-.03.02-.03 0 0m-.03-.1c.02-.03.07-.07.07-.01.05-.03.06-.01.03.05-.04-.06-.06.02-.1-.04m-.09.7c0-.05.03-.17.07-.21.04.05-.01.2-.07.21m-.06-.03a.31.31 0 0 1 .06-.13c.02.06 0 .1-.06.13m-.05.03c-.07-.17.05.03 0 0m-.21.07c.04.04.04.07-.01.11 0-.04.01-.08.01-.11m-.16-.03c.03-.07.13-.38-.02-.31-.05-.17.11-.54.19-.7.07-.16.61-.23.67-.21a.55.55 0 0 0 .09-.07c-.1.23-.96.26-.66.55.01.01.23-.16.3-.13.04-.01.07-.03.11-.05.01.08-.24.24-.33.27.11.14.19.35.2.36-.01.01-.21.18-.23.12-.03-.07-.05-.25-.02-.32-.17-.09-.11.43-.15.49 0-.02-.11.02-.15 0m-.44-.19.03-.12-.03.12m-.84-.12c-.06-.07 0-.29-.03-.31-.02.02-.05.07-.08.05.03-.16-.03-.35.07-.61.11.18.83-.46.83-.58.08-.03.09-.05.04-.06.11-.12.13-.19.22-.34.04.11 0 .06.05-.01.09.07.06.22.12.17.03.03.11.06.13.1.14 0-.17.07-.05.2-.16.15-.28.31.03.6-.06.05-.11.04-.16-.03.02.09-.17.56-.25.56-.03.16-.07.25-.3.42.01-.09-.03-.19-.13-.1-.02-.06-.17-.1-.14 0-.18 0-.06.14-.13-.12-.01.08-.17.09-.22.06m3.01.08c.01 0 .01 0 .02.02.08-.29.03.17-.02-.02m-.24.39c.01-.07.04-.11.1-.14-.08.11-.04.17-.1.14m-.03.04.04-.01c-.03.03-.04.03-.04.01m-.15-.02c.03-.01.04-.01.03.01-.01 0-.02-.01-.03-.01m-.11.09c.02-.02.03-.02.03 0h-.03m-.01-.18c.04-.02.04.02 0 0m-.17.11c0-.04.01-.04.03-.02-.02.01-.02.01-.03.02m.05.07c.08.01.08.01 0 0m-.02.02h.01-.01m-.06.01c0-.02 0-.02.02-.01-.01 0-.02 0-.02.01m-.16-.02c.02-.06.08-.1.14-.06-.05.03-.09.05-.14.06m-.05.06c.03 0 .03 0 0 0m-.14.05c.01-.05.04-.06.09-.05-.03.02-.06.03-.09.05m-.07.01c.13-.08-.01.09 0 0m-.1.03c.04-.02.07-.04.1-.06-.01.05-.05.07-.1.06m0-.03c.01 0 .01 0 .02-.01-.01.02-.01.02-.02.01m-.05.06c.02-.01.02-.01.02-.02 0 .01-.01.02-.02.02m-.02.27c.18-.21.34-.31.59-.39-.02.07-.52.44-.59.39m-.06.09c.03-.02.06-.05.09-.07 0 .03-.04.11-.09.07m-.13-.01c.06-.03.06-.03 0 0m-.37-.13c.14-.08.17-.02.26.04-.05.08-.19 0-.26-.04m.12-.14c.05-.06.44-.18.46-.17-.02.02-.31.28-.46.17m-.29-.04c.03-.05.03-.05 0 0m.31-.03c-.03-.02.03-.03 0 0m-.04.07c.02-.07.02-.07 0 0m-.4.09c.08-.23.15-.05.25-.09-.19-.08.1-.06.1-.06 0 .1-.19.18-.35.15m-.12-.03c.09-.02.04-.08.14-.07-.02.08-.06.1-.14.07m-.05 0c.05-.02.01.04 0 0m-.13-.08c.07-.03.12-.02.17.04-.07.08-.12.07-.17-.04m0-.16c.01 0 .01 0 .02-.01-.01.01-.01.01-.01.02-.01 0-.01 0-.01-.01m.13-.05c.07-.04.05.04 0 0m-.36.05c.06-.03.13-.05.2-.04-.03.05-.14.09-.2.04m-1.14.04c-.15-.14.65-.16.49-.05.06.05.49-.01.55-.03.13.1.15.14.32.13 0 .06-.01.12-.02.19-.07-.06-.78-.06-.76-.14-.09.09-.29.01-.43 0-.01-.06-.1-.11-.15-.1m.54-4.92c.7-.43.13.62 0 0m-2.38.8c.05-.11.05.03 0 0m.72.64c.01-.05.01-.05 0 0m-.03.49c.02-.08.02-.08 0 0m.03.4c0-.24.05.02 0 0m.23.21c0-.02.01-.02.03-.01-.01 0-.02 0-.03.01m.1.25c-.01-.04.09-.03 0 0m-.03-.85c-.01 0-.01 0-.02-.01.02-.02.05-.01.02.01m0 .06c.03-.07.03-.07 0 0m.35-.54c.02.01.05.03.03.05-.01-.02-.02-.04-.03-.05m.33.33c.18.05-.15.09 0 0m.68 1.16.04-.04c.11.1 0 .07-.04.04m-.38.21c.02 0 .02 0 .04.01l-.03.03c-.01-.02-.01-.03-.01-.04m-.7.29c-.01 0-.01 0-.02-.01.05-.17.1.06.02.01m.14.15c-.02-.04-.02-.04-.04-.09.06 0 .07.03.04.09m.02.02c.07-.05.11 0 .06-.01l.02.02c-.02.01-.05.01-.08-.01m.26-.05c-.01-.01-.01-.01-.02-.01.04-.04.05-.04.02.01m.04-.02c.08-.18.01.23 0 0m.03.26c.02-.1.05-.1.09.01-.03 0-.06 0-.09-.01m-.04.04c.09-.03.04.08 0 0m.72.16c.03-.01.02.05 0 0m-.24.23c.02-.01.02-.01.04-.03l-.02-.02c.05-.03.09-.02.12.03 0 .13-.14.02-.14.02m-.09.01c.03 0 .03.01 0 .03-.01-.01-.01-.02 0-.03m-.26-.15c.03-.09.06-.1.1-.03-.03-.06-.01-.08.05-.05-.02.1.01.15.11.17-.04.03-.05.06-.04.11-.05-.1-.16-.15-.22-.2m-.56.6c.03.01.03.01.06.01-.02.04-.04.04-.06-.01m-.28-.4c.16.15-.05.08 0 0m-.05-.05c.04.02.04.03.01.05 0-.01-.01-.03-.01-.05m-.08-.08c.09-.09.05.24 0 0m-.15-.17c.09-.01.13.03.12.13a.16.16 0 0 1-.12-.13m-.02-.12c.04.01-.04.11 0 0m.02-.11c.02-.02.11.03 0 0m-.25-.22c.09-.01.17 0 .12.15l-.12-.15m.01-.14c.03-.02.04-.02.04.02l-.04-.02m-.24-.16c.04.03.04.03.07.06-.06 0-.11.01-.07-.06m-.08-.51c.31 0 1.39.91 1.28 1 .06-.06.12-.07.18-.01-.01.1-.01.03-.08.1.07.05.17-.09 0 .08.26.2.15-.1.19.2.07-.04.08.07.07.12.01-.04.04-.06.08-.06.03.13.12.13.04.32-.13.32-.12.13-.25.31-.3-.27-.43-.6-.68-.88-.11-.13-.33-.43-.38-.56-.1-.17-.47-.4-.45-.62m-.29-.29c.08-.12.02.27 0 0m-.01-.04c.02-.02.02-.02.03-.04-.03.07-.04.08-.03.04m0-.12c-.02-.07-.02-.07 0 0m-.06.03c.02-.05.11.05 0 0m-.04-.1c.04.05.04.05 0 0m-.34-13.74c-.05-.01-.11-.03-.16-.04.05.02.11.03.16.04m.33.07c-.01.04-.05.03-.13-.04-.26-.05.2.06.11.03.01 0 .01.01.02.01m.08.04c.04 0 .03 0-.01-.02.11.02.23.06.33.1-.24.05-.35.02-.32-.08m.35.16c.05.01.05.01 0 0m.04.02c.12.03.04.01 0 0m-.03.01c.1.01.08.04 0 0m-1.67-.38c-.05-.01-.05-.01 0-.01h-.01c0 .01.01.01.01.01M61.3 32c0-.01.01-.02.04-.01 0-.04.06-.03.16.01a.67.67 0 0 1-.2 0m-1.31-.17c0 .04.11-.04.11-.01-.04 0-.07 0-.11.01m-.05 0h-.01c.01 0 .1-.01.03 0h.01-.03m.28 0c.16-.02-.02.01.04 0h-.04m-.05.01h-.01c.06-.01.01-.01.01 0m-.69.11c.04-.01.05-.01 0 0m-.05.05c.04-.01.08-.01.12-.01-.15.02-.19.03-.12.01m.08-.04h.01c-.02-.01-.02-.01-.01 0 .06-.01.06-.01 0 0m-.14.02c.16-.06 0 .02 0 0m-.11.01c.06-.01.06-.01 0 0m-.01-.02c.04-.01.08-.02.11-.03 0 .02-.1.03-.11.03m-.42.02h.02-.02m-.15.06c.14-.04-.05 0 0 0m-.45.2c.13-.02.13-.02 0 0m-.05.01c0 .02-.03.01 0 0m.54-.01c.22-.03.03.01 0 0m-.1.04c.08-.01.08-.01 0 0m.11.02c.02-.02.09-.03 0 0m-.04.01h-.01c.05-.02.05-.02.01 0m-.07.02c-.01 0-.01 0-.02-.01.02-.01.02-.01.06-.02-.04 0-.05.01-.04.03m.1.01c.07-.02.07-.02 0 0m-.12.04c.06 0 .06 0 0 0m-.12.01c.09-.02.09-.02 0 0m-.07.01c.05 0 .05 0 0 0m-.15-.09c-.06-.01-.07-.02-.02-.02-.01 0-.01 0-.01-.01.02-.01.08-.01.03.03m-.21.1c.08-.02.07.01 0 0m-1.95.48c.16-.09.04-.02 0 0m-.37.38c.05-.04.08-.05.14-.09-.06.03-.12.05-.18.06.01-.01.14-.08.09-.06-.24.18.15-.05.14-.06-.1.01-.1.01.01-.04-.02.01-.04.01-.06.01.04-.01.07-.03.1-.05l-.09.03c.04-.03.03-.04-.02-.02.08-.05.13-.05.21-.1-.01-.01-.02.01-.03 0 .1-.04.13-.06.07-.04-.01-.01.17-.09.12-.08.01 0 .09-.05.03-.01 0-.01.66-.29.66-.29.18-.02.02.01.06 0-.09.08-.66.35-.63.35-.03.02-.14.07-.1.06-.1.03-.12.04-.06.03-.09.02-.1.03-.04.04-.03.02-.2.12-.11.09-.01.01-.01.02.01.02-.09.08-.2.11-.32.15m-.06.33c.05-.01.06-.02.02-.03.16-.13-.1.04-.01-.07-.04.02-.11.1-.19.08.01-.02.01-.02-.02-.02.07-.07.15-.15.19-.18-.19.03.07-.06-.09.03.19-.37.11 0 .07-.08.06-.06.36-.15.27-.11.02-.01.02-.01.03-.01-.03.07-.08.09-.07.08h.01c-.06.13.07.15.21.18-.09.04-.1.05-.04.05-.03.05-.11-.02-.08.03-.04.01-.09 0-.09 0h-.02c.01.03-.17.08-.19.05m-.09-.01c.13-.11.05.09 0 0m3.32-.79c-.03-.01 0-.04 0 0m.02.06c-.02-.13.01.04 0 0m-.77-.24c.06-.03.09-.1.12 0h-.12m-.11.12c.04-.05.09-.07.14-.07-.01.05-.06.08-.14.07m-.18-.1c.16-.03.04.01 0 0m-.12.01c.03-.02.06-.03.09-.04-.03.01-.06.02-.09.04m0 .07h-.03c.07-.03.08-.04.04-.03l.02.02c-.02.01-.03.01-.03.01m-.47.11c-.02 0-.01-.03-.02-.05.05-.04.11-.04.17-.01-.05.01-.1.03-.15.06m-.86.74c.01 0-.11.03-.07-.01-.02-.04-.11.05-.15-.04-.05.01.28-.09.22.05m-.67.4c.04-.03.04-.03 0 0m.05-.01c.04-.03.04-.03 0 0m-.38.09c.07-.03.07-.03 0 0m.9-.38c-.12-.05-.02-.04 0 0m-.23.14c.11-.05.11-.05 0 0m-.11.01c.01-.01.01-.01.02-.01-.01 0-.02.01-.02.01m-.07.01c.04.01.04.02-.01.01 0-.01.01-.01.01-.01m-.06.01c.01 0 .01 0 .03-.01-.01.01-.02.01-.03.01m-3.02 1.73c-.01-.02.11-.1 0 0m2.47 2.83c.05-.04 0 .06 0 0m-4.34 2.56h.03c-.01.02-.01.02-.01.03-.01-.02-.01-.02-.02-.03m4.2-6.93c.03-.06.29-.14.17-.02.07-.14-.2.14-.14.08-.05 0-.06-.01-.03-.06m-1.88.64s.06-.04.07-.05c-.02.01-.02.01-.03.02.01.01-.03.04-.04.03m-.04.01c.02-.02.01.01 0 0m-.06.05.02-.02c-.01.03-.02.03-.02.02m-.04.05-.01.01c.09-.08-.04.05.01-.01m-.07.06c.15 0-.06-.07 0 0m-.05.02c.01.01.1-.08.11-.08-.03.04-.07.06-.11.08m-.01.02c.08-.06.03 0 0 0m-.11.09c.01.01-.01.04-.02.03h-.01l.03-.03m-.06.03c-.01.01-.01.02.01.01-.03.03-.04.02-.01-.01m-.04.04c-.01-.01 0-.02.02-.03 0 .01-.01.02-.02.03m-.05.05c.06-.06.06-.06 0 0m0 0c.11-.11.02.02 0 0m-.07.08c.19-.15-.01-.01 0 0m-.11.12.01-.01c-.02.01-.02 0 .01-.02-.01.01-.01.01-.02.01.01-.01.09-.07.03-.04l.06-.06c-.01.01-.01.01-.01.02.01-.01.01-.01.01 0-.03.04-.06.07-.09.1m-.01.02c.02-.03.02-.03 0 0m-.02.02c.04-.05 0 0 0 0m-.09.05c.03-.03.06-.06.09-.1-.03.03-.06.07-.09.1m-.05.08c.03-.03.05-.07.09-.1-.1.13.05-.04.05-.03.02.02-.21.17-.14.13m0-.02c.04.03-.04-.04 0 0m-.01.01-.02.02c.01-.02.02-.03.02-.02m-.06.07c.16-.21.01.02 0 0m-.05.05c-.01-.01.13-.14 0 0m-.02.02c-.08-.07.08.05 0 0m-.05.05c.06-.09.03-.04 0 0m-.03.04c.02-.03 0 0 0 0m.04 0c-.02-.02.04.03 0 0m-.03.04c.01-.02.03-.03 0 0m-.04.04c.02-.01.02-.01 0 0m-.01.02c.01-.01.01-.01 0 0-.01.02-.01.02 0 0m-.04.05c.02-.03.02-.03 0 0m-.01.02c.01-.01.01-.01.02-.01 0 0-.01.01-.02.01m-.02.02c.02-.03.02-.03 0 0m-.03.04c-.02-.01.08-.09 0 0m-.01.02c.04-.06-.01.04 0 0m-.06.07c-.01-.01.04-.04 0 0m.01 0-.01.02s0-.02.01-.02m-.06.09c.04-.04.04-.04 0 0m-.02.01c.02-.03.02-.03.04-.04-.02.04-.03.06-.04.04m-.07.08c.01-.01.02-.02 0 0m.02-.02c.03-.03.11-.1 0 0m-.18.22c.01-.01.02-.01 0 0m-.02.03c.02 0-.03.03 0 0m-.05.04c.1-.11 0 .01 0 0m-.01.03c.07-.07.07-.07 0 0m-.03.04c.02-.02.01 0 0 0m-.01-.01c-.01 0-.01-.01.01-.02.01.02 0 .03-.01.02m-.01.02.02-.02c0 .02-.01.03-.02.02m-.03.04c.02-.02.02-.02 0 0m-.07.09c.04-.06.01-.02 0 0m-.04.03c.03-.03.03-.03 0 0m-.02.03c-.01-.01.02.02 0 0m-.02.03c.01.01-.03.05 0 0m-.02.03c.02-.03.02-.03 0 0m-.04.04s.05-.05 0 0m-.03.05c.01-.02.01.01 0 0m-.02.03c-.01 0 0-.01.01-.02 0 .02 0 .02-.01.02m-.01.03.01-.01-.01.01m-.01.02c.02.01-.02-.02 0 0m-.01.03c.01-.03.01-.03 0 0m-.02.03c.02-.04.02-.04 0 0m0 .01c.01-.02.01-.02 0 0m-.01.07h-.01c.03-.04.03-.04.01 0m-.04.07c.01.01-.03.05 0 0m-.05.1c-.01.03-.01.03 0 0m5.2 7.89c.08.02.08.02 0 0m15.51 3.13c-.02.06-.02.06 0 0m0-.01c.03-.08 0 0 0 0m.01-.05c-.01.04-.04.1 0 .01-.06.16-.02.04-.04.11.01-.04.03-.08.04-.12m-.06.19c-.01.02-.01.02-.01.03 0-.02.06-.17.01-.03m.01-.02s.03-.09 0 0m-.02.03c0 .02 0 .02 0 0m-.25.59c.01-.02.01-.02.02-.03-.01 0-.02.01-.02.03M52.4 36.64l.01-.01c0 .01 0 .01-.01.02v-.01m-.06.07v-.02c-.01 0-.01 0-.04.01.08-.06.14-.07.04.01m.05-.01s.03-.02.01.02c0-.01-.01-.02-.01-.02m-.14.18c.04-.07.03-.04.01-.07.01-.03.08-.14.13-.09-.05.06-.1.11-.14.16m-.06-.32c-.03-.03.04.03 0 0m-.02-.02c.12-.12-.03.08 0 0m-.02 0 .01-.01c-.01.03-.01.03-.01.01m-.11.17c.03-.03.03-.03 0 0m-.03.05c.06-.08.03.02 0 0m.01.13c.02-.02.03.01 0 0m-.11.26c-.01-.09.03-.15.11-.18 0 0-.1.17-.11.18m-.04.05c.06-.07.06-.07 0 0m-.17.16c.03-.06.05-.13.08-.19.07.04.04.1-.08.19m12.02 8.07c.06-.07.05.16 0 0m.04-.29c.04.02.04.11 0 .17a.248.248 0 0 1 0-.17m.02-.13c.04.03.04.06.01.1a.077.077 0 0 1-.01-.1m.04-.15-.03.14c-.02-.05-.01-.1.03-.14m-.03-1.03c.03-.02.09.09 0 0m.03-.16c.05.07.05.07 0 0m-.07.03c.07 0 .14.04.13.11-.04-.03-.09-.08-.13-.11m-.03-.1c.01-.01.01-.01.01-.02.01.05 0 .06-.01.02m-.05-.05.02-.02c.01.05 0 .06-.02.02m-.23-.32c.02.06.02.06 0 0m-.11-.21c.04.08.04.08 0 0m-.03.06c.03 0 .01.17 0 0m-.05-.06c.09 0 .06.06 0 0m-1.86 2.76c.14-.01.12-.03.06-.15.18.03.32.42.36.57-.53.45-.24-.19-.42-.42m-5.08-3.52h.04-.04m-3.99-1.52c.02-.02.02-.02.03-.04-.02.01-.03.03-.03.04m.07-.07c.02.01.02.01 0 .02v-.02m-.04-.05c.04-.03.04-.03 0 0m6.89 14.67c.07.03.07.03 0 0m-.4-.4-.01-.01c.04 0 .04 0 .01.01m-.08.04c.03 0 .17.04.21.02-.07-.02-.07-.03 0-.02 0 .01-.18-.14-.21 0m-1.41-4.05c.02-.06.05-.07.1-.04-.02.07-.05.08-.1.04m-.32.08c.01-.07.04-.06.1.03-.04.03-.08.02-.1-.03m-.08-2.69c.01-.01.01-.01.02-.03.02.05.01.07-.02.03m-1.48.66c.08.01.08.01 0 0m-.46.37c-.02-.25.09.09 0 0m.21.11c-.01-.02-.01-.02-.02-.03.04 0 .05.01.02.03m.1.12c-.02-.04-.01-.06.03-.06l-.03.06m.49.09c.02-.03.05.07 0 0m-.38 1.82c-.24-.25-.25-.34-.3-.67.2-.03.13-.43.03-.55.17-.25.19-.26.44-.17-.13-.14.04-.11.1-.09-.09-.08-.03-.08.01-.12-.01.02-.01.02-.01.05.06-.01.08-.03.05-.07.09.07-.03-.13.05-.15.03.1.19-.06.08-.19.05.05.08.03.1-.05.02.22.22.42.15.66-.02-.08-.05-.1-.1-.07.09.47-.13 1.35-.6 1.42m13.14 1.46c.12.12-.08-.16 0 0m-.08.06c.12-.11 0 0 0 0m.17-.23c-.01.01-.22.26-.22.26-.06.05-.01.01 0 0l-.01.01c.06-.04.15-.13.15-.13.04-.03.05-.04.03-.02.12-.12.15-.14.1-.09.06-.06.11-.12.17-.17.01.02-.19.14-.18.12-.01.01-.03.02-.04.02m.02-.01c.01-.01.01-.01.02-.01-.01 0-.02.01-.02.01m0 0c.02-.03.02-.03 0 0m.23-.17c.01 0 .01.01 0 0m.02-.02c.01.01.06-.06 0 0m.02-.02c.06-.1.03-.03 0 0m-.25.16c.01.03.1-.11 0 0m-2.51.18c.02-.12.05-.15.07-.1.34-.27 0-.92.18-1.09 0 .07.03.08.07.05-.04-.04-.04-.09-.02-.14 0 .1.01.13.04.07-.03.09.06-.02.01-.13-.06-.13.13-.49.23-.57-.13.29.47-.34.42-.22.18-.1.4-.14.57-.24.26-.15.26-.44.45-.6-.01.07 0 .13.04.19 0-.03.05-.19.05-.19-.01-.01-.01-.01-.02-.01.04-.06.11.05.16-.02 0 0-.03-.11-.03-.12 0-.01.24-.28.2-.18.02-.01.02-.01.03-.02v.03c.07-.07.08-.1.11-.13v.02c.06-.02.08-.04.04-.06.02-.04.19.08.08.22.01-.03.03-.03.04-.01.02-.17.16-.04.22-.14-.14-.1.17-.32.19-.37-.02-.01.15-.08.19-.05.01-.1.02-.19.01-.19.03-.05.05 0 .06.03.06-.06.29.04.33.01v.05c.03-.03.05-.07.07-.11 0 .06.01.07.03.02.05.19-.47.42-.15.61.01 0 .01 0 .02-.01-.04.26.34.08.41-.15.06-.19.15-.63.29-.79-.04.13-.03.17.03.14.01-.02-.05.19-.01.14a.38.38 0 0 0-.02.21c.13-.18.03.31.03.31-.02.07-.08.26-.03.3v.01c.01 0 .01 0 .03-.01 0 .02-.03.09.01.03 0 .04.02.05.04.02-.01.05-.12.38-.05.27-.01.02-.01.02-.01.04.03-.09.04-.1.05-.03.06-.18-.13.25-.02.17.1.06-.41.86-.44.89-.03.05-.33.44-.35.45-.08.1-.83 1-.87.96 0 0-.06.07-.02.01-.02-.01.01-.02.03-.07-.03.02-.14.12-.01-.01-.03-.03-.1.07-.06.04.05.06-.29.15-.28.14-.12-.13.41-.39.01-.23.06-.06.11-.13.14-.21-.13.21-.1.12-.22.21.11-.17.23-.23.33-.44-.07.1-.4.41-.4.41-.02.01-.02 0-.02-.02.01 0 .01 0 .01.01.08-.08.02-.17.07-.25-.17-.18-1.23.3-1.36.56-.02 0-.23.06-.22.04-.29.19-.47.32-.78.25m-15.4-15.49c.01-.01.01-.01.01-.02 0 0-.01.01-.01.02m.02-.05c.07.05-.05-.05 0 0m-.02.05c.03-.06.03-.06 0 0m-.01.02c.01.01 0-.04 0 0m-.02.03c-.02.04-.02.04 0 0m.12-.09c.43.22-.39-.3 0 0m-.01.02c-.01 0-.01-.01.01-.02 0 0-.01.01-.01.02m-.02.04c.01-.01.01-.01 0-.01v.01c.04-.07.04-.07 0 0m-.72 1.41c-.01.02-.01 0-.02.03v-.01c.01-.01-.14.25-.13.19-.01.01-.01.01-.01.02 0 0 .01-.04.03-.06-.01.02-.01.02-.02.03-.02-.01.15-.28.05-.13.05-.09.07-.11.05-.12l-.01.01v-.01l-.01.01c.02-.07.12-.24.12-.24-.01.03.1-.18.07-.11 0 0 .08-.17 0 .01.01-.03.03-.06.06-.08-.04.11 0 .04-.03.11v-.01c-.03.12-.11.21-.15.36m1.39-1.23c.04.03-.03.08 0 0m-.23.16c-.01-.01-.01-.02.01-.03h-.03c.03-.17.04-.1.07-.08-.02-.03-.01-.05.03-.07.05.03-.09.18-.08.18m-.02.03c.04-.07.04.02 0 0m-.04.01.02-.02v.03c.06-.05-.05.1-.02-.01m-.06.02c.01 0 .01 0 0 0 .02.01.02.01 0 0m-.01-.06c.03-.05.04-.06.05-.02.01-.01.01-.01.01-.02l-.03.12c.04-.16-.05.03-.03-.08m-.48-.07c.02-.04.02-.04 0 0m-.01.03c-.01-.01.01-.03 0 0m-.21.29c.02-.04.05-.09.08-.14-.01.12-.03.16-.08.14m-.02.04c.01-.03.01-.03.01-.01l.01-.01c-.02.01-.02.01-.02.02m-.04.08c.04-.08.04-.08 0 0m.04-.04c.01-.01.01-.01.01-.02l-.01.01c.02-.03.03-.05 0-.01.02-.05.03-.06.02-.03.05-.09-.02.05-.02.05m-.03.03c-.04-.05.06.04 0 0m-.02.06c-.01 0-.01-.01.01-.02 0 0 0 .01-.01.02m0 .01.02-.02c-.02.04-.03.04-.02.02m-.03.08c.03-.06.03-.06 0 0m-.02.03s.02-.05 0 0m0 .04-.01.01c.05-.12.04-.07.01-.01m.02-.03c-.14-.08.14.07 0 0m-.06.17c.09-.14-.02.02 0 0m-.04.13c.02-.06.03-.07 0 0m-.21.52c-.03.08.19-.36.14-.23.14-.14-.01-.04-.01-.04 0-.01 0-.01.01-.03-.09-.05-.1.69.06-.18 0 .03-.01.05-.03.04.07-.13.13-.31.19-.38-.01-.01-.06.07-.07.08v-.02c-.01.01-.01.01-.02.04.03-.07.06-.13.09-.2-.01 0-.04.04-.05.07-.01 0 .08-.17.09-.19-.15.23.04-.09.01-.05.05-.11.11-.22.2-.3-.57 1.07-.06.09-.13.22 0 0 .09-.11.1-.11-.01.03-.13.32-.18.32.03-.05.05-.06.05-.03l.01-.01a5.2 5.2 0 0 0-.03.25c-.04.1-.06.13.04.08.11.32-.4.35-.4.58-.05.11-.07.14-.07.09.01 0 0 .01 0 0m1.12.39c.02.06.02.06 0 0m-.02-.04c.02 0 .02.01.01.03 0-.02 0-.02-.01-.03m0-.11c.07.04-.11.21 0 0m4.73 3.15c0-.04.01-.07.02-.11.01.04.01.08-.02.11m.53.31c.02-.02.02-.02.05-.03.01.05 0 .06-.05.03m.27-.49c.05-.03.1-.05.16-.07-.04.06-.09.09-.16.07m.67 1.3c.02-.04.04-.09.05-.13.02.05 0 .1-.05.13m-.85 1.51c.05-.1.12-.04.21-.02a.22.22 0 0 1-.21.02m-2.27-.69c.03.02.07.03.1.01-.04.05-.07.05-.1-.01m.3-.2c.05.02.06.06.05.11-.04-.03-.06-.07-.05-.11m-1.39-3.26c-.16-.16.01-.19.22-.25-.06.06-.19.18-.22.25m-1.11-.27c.01-.01.01-.01.02-.01-.01.02-.01.02-.02.01m.22-.18c.02-.05.02-.05 0 0m-.02-.55c.02-.01.02-.01.04-.01-.01 0-.02.01-.04.01m-.01-.04c.03-.02.03-.02 0 0m-.11-.04c.05-.03-.03.07 0 0m.04.15c.07.04.03-.02.03 0l-.02.02c-.01-.01-.01-.01-.01-.02m.13.18c.03-.07.01-.08-.04-.03.04-.16.14.01.04.03m-.04.08c.01-.01.01-.01.03-.01-.02.11-.03.11-.03.01m-.16-.06c.03.06.03.06 0 0m-.11-.01c.02 0 .02.01.01.03 0-.01 0-.01-.01-.03m.11.19s-.12-.11-.18-.13c.07-.09.15.14.18.13m.05.08c-.03-.01-.08-.09 0 0m.17-.03c.06-.02.06-.02 0 0m-.15.06-.01-.01c.03 0 .03 0 .01.01m-.01.08c-.01 0-.01-.01 0-.02v.02m.04.01c-.06-.02.09-.12 0 0m.1.07c.03-.03.03-.03 0 0m.15.09c0-.06.03-.09.08-.1a.7.7 0 0 1-.08.1m-.06.09c.02-.12.02-.12 0 0m-.43.02c.09.03.3.04.33 0-.02.14-.33.12-.33 0m-.07-.14c0 .07 0 .07 0 0m-.24-.23c.01.01.03.02.02.04-.01-.01-.01-.03-.02-.04m-.01-.1c.1.04-.04.12 0 0m.01-.04s.03.02 0 0m-.06-.2c.05.2-.08-.03 0 0m-.46.36c-.02.11-.05.19-.07.29-.04-.01-.31-.13-.2-.22.1.04.23-.09.27-.07m-.39-.7c.03-.02.03-.02 0 0m-.15.24c.04-.04.06-.21.09-.27.02.07.01.31-.09.27m-.06.48c-.01-.09-.02-.46.11-.42.05.02.01.43-.06.34 0 .04-.02.06-.05.08m-.35-.08c.01.01.04-.08.04.01 0-.01 0-.01-.01-.01-.01.02-.02.02-.03 0m-.06.05c0 .01.05.02 0 0m-.1.16c.06-.12.02.09 0 0m1.16-3.14c.03-.04.03-.04 0 .01v-.01m4.01 1.31c-.3-.27.19-.46.1-.5.04-.02.16-.11.08-.09.04-.03.06-.02.05.01.25-.19.32-.1.58-.15-.03.07-.02.28.03.29.04-.06-.56.23-.24.19-.07.02-.14.04-.21.07.13.13.2.33.42.3-.05.13.02.56.12.65-.03-.09.02-.03.08-.07-.04.07-.03.1.02.07-.01-.02-.08.18-.07.08.12.04.21.4.18.51-.15.02-.16.03-.03 0-.12-.02-.82.11-.82-.14 0-.14-.06-.56.2-.55-.07-.16-.43-.47-.48-.63.01-.04.01-.04.01-.07-.01.02-.01.02-.02.03"/></g></g></g><g><path class="st1" d="m141.22 24.79-.79 1.96H142m-1.06-2.49h.59l1.67 3.95h-.62l-.4-.99h-1.93l-.41.99h-.59l1.69-3.95zM143.98 24.26h.77l1.74 3.18h.01v-3.18h.56v3.95h-.72l-1.79-3.25h-.01v3.25h-.56M150.05 24.26h.56v3.95h-.56zM151.83 24.26h.77l1.74 3.18h.01v-3.18h.56v3.95h-.72l-1.78-3.25h-.02v3.25h-.56M156.12 24.26h.77l1.74 3.18h.01v-3.18h.57v3.95h-.73l-1.78-3.25h-.02v3.25h-.56M162.11 27.77c.91 0 1.3-.76 1.3-1.54 0-.8-.43-1.55-1.3-1.54-.87-.01-1.3.74-1.3 1.54 0 .79.39 1.54 1.3 1.54m0-3.58c1.2 0 1.9.87 1.9 2.04 0 1.2-.69 2.04-1.9 2.04-1.2 0-1.9-.84-1.9-2.04 0-1.17.7-2.04 1.9-2.04M166.75 28.21h-.71l-1.49-3.95h.64l1.21 3.45h.01l1.25-3.45h.6M170.32 24.79l-.78 1.96h1.57m-1.07-2.49h.59l1.67 3.95h-.62l-.4-.99h-1.94l-.4.99h-.59l1.69-3.95zM173.45 24.76h-1.23v-.5h3.03v.5h-1.23v3.45h-.57M176.02 24.26h.56v3.95h-.56zM179.5 27.77c.91 0 1.3-.76 1.3-1.54 0-.8-.43-1.55-1.3-1.54-.87-.01-1.3.74-1.3 1.54-.01.79.38 1.54 1.3 1.54m0-3.58c1.2 0 1.9.87 1.9 2.04 0 1.2-.69 2.04-1.9 2.04-1.2 0-1.9-.84-1.9-2.04-.01-1.17.7-2.04 1.9-2.04M182.4 24.26h.77l1.74 3.18h.01v-3.18h.57v3.95h-.73l-1.78-3.25h-.01v3.25h-.57M190.18 27.77c.91 0 1.3-.76 1.3-1.54 0-.8-.43-1.55-1.3-1.54-.87-.01-1.3.74-1.3 1.54-.01.79.38 1.54 1.3 1.54m0-3.58c1.2 0 1.9.87 1.9 2.04 0 1.2-.69 2.04-1.9 2.04-1.2 0-1.9-.84-1.9-2.04 0-1.17.7-2.04 1.9-2.04M193.05 24.26h2.1v.49h-1.53v1.16h1.46v.5h-1.46v1.8h-.57z"/><g><path class="st1" d="m268.38 49.3-3.07-8.06-1.51 8.06zM271.19 34.45h-4.79l-.7 4.56c.66-.82 2.65-1.58 5.82-2.23v.6c-4.06.82-5.49 1.72-5.49 2.24 0 .85 2.51 1.73 6.94 2.48v-5.57c-.02-1.19-.38-2.08-1.78-2.08zM258.11 53.56v-2.48h1.48v.27h-1.16v.84h.97v.27h-.97v.82h1.16v.27h-1.48zM261.59 53.55s-.05.01-.14.01c-.2 0-.32-.11-.32-.38v-.68c0-.24-.11-.41-.37-.41-.29 0-.41.28-.41.49v.97h-.31v-1.31c0-.1-.03-.17-.15-.17v-.23s.05-.01.14-.01c.15 0 .28.1.28.26v.09c.05-.18.22-.36.53-.36.43 0 .6.3.6.67v.66c0 .11.03.17.15.17v.23zM262.19 52.72v.03c.02.45.3.57.5.57.31 0 .44-.24.44-.24l.17.17s-.17.33-.65.33c-.41 0-.77-.25-.77-.87 0-.58.28-.87.76-.87s.65.33.65.78v.12h-1.1zm.81-.21c0-.23-.1-.41-.38-.41-.22 0-.39.12-.42.41h.8zM263.77 53.56v-1.3c0-.11-.03-.17-.15-.17v-.23s.04-.01.13-.01c.15 0 .28.07.28.27v.08c.05-.18.21-.36.53-.36.15 0 .23.05.23.05l-.13.28s-.06-.04-.19-.04c-.28 0-.4.27-.41.47v.97h-.29zM265.89 53.37c.37 0 .66.16.66.51 0 .31-.22.56-.83.56-.57 0-.82-.19-.82-.53 0-.28.21-.38.27-.41-.05-.03-.2-.1-.2-.27s.1-.26.23-.29c-.05-.05-.21-.19-.21-.45 0-.4.33-.64.72-.64.14 0 .24.05.26.05.18 0 .37-.06.37-.33l.26.04c0 .35-.27.41-.38.42.09.07.22.22.22.46 0 .41-.34.64-.73.64-.15 0-.25-.05-.29-.06-.1 0-.17.05-.17.15 0 .13.11.16.27.16h.37zm-.38.22c-.19 0-.31.1-.31.29 0 .19.14.28.5.28.39 0 .54-.1.54-.3 0-.18-.12-.28-.34-.28h-.39zm.21-1.5c-.24 0-.42.15-.42.38s.17.38.41.38.42-.15.42-.38c.01-.23-.17-.38-.41-.38zM267.54 53.99c-.1.25-.25.44-.56.44-.16 0-.26-.05-.26-.05l.04-.25s.09.03.19.03c.17 0 .25-.11.3-.26l.12-.33-.67-1.72h.34l.5 1.34.47-1.34h.33l-.8 2.14zM270.92 51.68s-.15-.34-.63-.34c-.36 0-.56.19-.56.41 0 .66 1.47.18 1.47 1.14 0 .36-.28.69-.9.69-.74 0-.97-.49-.97-.49l.2-.19s.23.4.77.4c.35 0 .57-.15.57-.4 0-.7-1.47-.18-1.47-1.15 0-.38.3-.69.86-.69.73 0 .89.45.89.45l-.23.17zM271.84 52.72v.03c.02.45.3.57.5.57.31 0 .44-.24.44-.24l.17.17s-.17.33-.65.33c-.41 0-.77-.25-.77-.87 0-.58.28-.87.76-.87s.65.33.65.78v.12h-1.1zm.8-.21c0-.23-.1-.41-.38-.41-.22 0-.39.12-.42.41h.8zM274.71 53.25s-.17.33-.65.33c-.41 0-.77-.25-.77-.87 0-.58.29-.87.77-.87.44 0 .63.25.63.53 0 .11-.02.18-.02.18h-.29s.02-.06.02-.13c0-.15-.07-.33-.34-.33-.28 0-.47.18-.47.61 0 .49.29.62.51.62.31 0 .45-.24.45-.24l.16.17zM276.28 53.39s-.17.18-.44.18c-.43 0-.61-.23-.61-.66v-.81h-.27v-.25h.27v-.53h.32v.53h.65v.25h-.65v.81c0 .27.1.4.32.4.19 0 .31-.13.31-.13l.1.21zM276.5 52.7c0-.55.29-.87.76-.87.46 0 .76.33.76.87s-.29.87-.76.87c-.47.01-.76-.32-.76-.87zm1.21 0c0-.41-.18-.61-.45-.61s-.45.21-.45.61c0 .41.18.61.45.61.27.01.45-.2.45-.61zM278.48 53.56v-1.3c0-.11-.03-.17-.15-.17v-.23s.04-.01.13-.01c.15 0 .28.07.28.27v.08c.05-.18.21-.36.53-.36.15 0 .23.05.23.05l-.13.28s-.06-.04-.19-.04c-.28 0-.4.27-.41.47v.97h-.29zM280.94 51.72v1.83h-.32v-2.48h.34l.81 1.72.82-1.72h.33v2.48h-.32v-1.83l-.71 1.5h-.23l-.72-1.5zM284.9 53.55s-.05.02-.14.02c-.17 0-.29-.09-.29-.27v-.02c-.07.12-.23.29-.58.29s-.54-.17-.54-.44c0-.29.21-.47.67-.47h.42v-.24c0-.23-.13-.34-.36-.34-.23 0-.36.11-.36.27 0 .09.03.14.03.14h-.28s-.04-.06-.04-.19c0-.28.23-.48.65-.48.45 0 .66.21.66.61v.71c0 .11.03.18.14.18v.23zm-.45-.66h-.42c-.23 0-.35.08-.35.22s.12.23.31.23c.37 0 .47-.39.47-.39v-.06zM286.88 53.55s-.05.01-.14.01c-.2 0-.32-.11-.32-.38v-.68c0-.24-.11-.41-.37-.41-.29 0-.41.28-.41.49v.97h-.31v-1.31c0-.1-.03-.17-.14-.17v-.23s.05-.01.14-.01c.15 0 .28.1.28.26v.09c.05-.18.22-.36.53-.36.43 0 .6.3.6.67v.66c0 .11.03.17.15.17v.23zM288.69 53.55s-.05.02-.14.02c-.17 0-.29-.09-.29-.27v-.02c-.07.12-.23.29-.58.29s-.54-.17-.54-.44c0-.29.21-.47.67-.47h.42v-.24c0-.23-.13-.34-.36-.34-.23 0-.36.11-.36.27 0 .09.03.14.03.14h-.28s-.04-.06-.04-.19c0-.28.23-.48.65-.48.45 0 .66.21.66.61v.71c0 .11.03.18.14.18v.23zm-.46-.66h-.42c-.23 0-.35.08-.35.22s.12.23.31.23c.37 0 .47-.39.47-.39v-.06zM289.91 53.37c.37 0 .66.16.66.51 0 .31-.22.56-.83.56-.57 0-.82-.19-.82-.53 0-.28.21-.38.27-.41-.05-.03-.2-.1-.2-.27s.1-.26.23-.29c-.05-.05-.21-.19-.21-.45 0-.4.33-.64.72-.64.14 0 .24.05.26.05.18 0 .37-.06.37-.33l.26.04c0 .35-.27.41-.38.42.09.07.22.22.22.46 0 .41-.34.64-.73.64-.14 0-.25-.05-.29-.06-.1 0-.17.05-.17.15 0 .13.11.16.27.16h.37zm-.37.22c-.19 0-.31.1-.31.29 0 .19.14.28.5.28.39 0 .54-.1.54-.3 0-.18-.12-.28-.34-.28h-.39zm.2-1.5c-.24 0-.42.15-.42.38s.17.38.41.38c.24 0 .42-.15.42-.38.01-.23-.17-.38-.41-.38zM291.13 52.72v.03c.02.45.3.57.5.57.31 0 .44-.24.44-.24l.17.17s-.17.33-.65.33c-.41 0-.77-.25-.77-.87 0-.58.28-.87.76-.87s.65.33.65.78v.12h-1.1zm.81-.21c0-.23-.1-.41-.38-.41-.22 0-.39.12-.42.41h.8zM295.34 53.55s-.05.01-.14.01c-.2 0-.32-.11-.32-.38v-.68c0-.24-.11-.41-.37-.41-.24 0-.36.21-.39.4v.67c0 .11.03.17.15.17v.23s-.05.01-.14.01c-.2 0-.32-.11-.32-.38v-.69c0-.24-.11-.41-.37-.41-.29 0-.41.28-.41.49v.97h-.31v-1.31c0-.1-.03-.17-.14-.17v-.23s.05-.01.14-.01c.15 0 .28.1.28.26v.09c.05-.18.22-.36.53-.36.29 0 .47.14.55.34.06-.18.22-.34.53-.34.43 0 .6.3.6.67v.66c0 .11.03.17.14.17v.23zM295.94 52.72v.03c.02.45.3.57.5.57.31 0 .44-.24.44-.24l.17.17s-.17.33-.65.33c-.41 0-.77-.25-.77-.87 0-.58.28-.87.76-.87s.65.33.65.78v.12h-1.1zm.81-.21c0-.23-.1-.41-.38-.41-.22 0-.39.12-.42.41h.8zM299.07 53.55s-.05.01-.14.01c-.2 0-.32-.11-.32-.38v-.68c0-.24-.11-.41-.37-.41-.29 0-.41.28-.41.49v.97h-.31v-1.31c0-.1-.03-.17-.14-.17v-.23s.05-.01.14-.01c.15 0 .28.1.28.26v.09c.05-.18.22-.36.53-.36.43 0 .6.3.6.67v.66c0 .11.03.17.15.17v.23zM300.59 53.39s-.17.18-.44.18c-.43 0-.61-.23-.61-.66v-.81h-.27v-.25h.27v-.53h.31v.53h.65v.25h-.65v.81c0 .27.1.4.32.4.19 0 .31-.13.31-.13l.11.21zM303.03 52.87h-.98l-.25.69h-.33l.91-2.48h.32l.91 2.48h-.33l-.25-.69zm-.89-.27h.79l-.4-1.08-.39 1.08zM304.9 52.47s.02-.05.02-.13c0-.13-.1-.24-.37-.24-.24 0-.36.1-.36.25 0 .43 1.02.08 1.02.74 0 .3-.22.5-.67.5-.57 0-.74-.34-.74-.34l.18-.2s.18.28.54.28c.25 0 .37-.08.37-.22 0-.37-1.02-.06-1.02-.74 0-.27.18-.52.67-.52.51 0 .66.24.66.48 0 .1-.03.16-.03.16h-.27zM306.58 52.47s.02-.05.02-.13c0-.13-.1-.24-.37-.24-.24 0-.36.1-.36.25 0 .43 1.02.08 1.02.74 0 .3-.22.5-.67.5-.57 0-.74-.34-.74-.34l.18-.2s.18.28.54.28c.25 0 .37-.08.37-.22 0-.37-1.02-.06-1.02-.74 0-.27.18-.52.67-.52.51 0 .66.24.66.48 0 .1-.03.16-.03.16h-.27zM307.46 51.51c-.12 0-.22-.09-.22-.21s.1-.21.22-.21.22.09.22.21-.1.21-.22.21zm.29 2.04s-.05.01-.14.01c-.2 0-.32-.11-.32-.38v-1.34h.32v1.31c0 .11.03.17.14.17v.23zM309.11 52.47s.02-.05.02-.13c0-.13-.1-.24-.37-.24-.24 0-.36.1-.36.25 0 .43 1.02.08 1.02.74 0 .3-.22.5-.67.5-.57 0-.74-.34-.74-.34l.18-.2s.18.28.54.28c.25 0 .37-.08.37-.22 0-.37-1.02-.06-1.02-.74 0-.27.18-.52.67-.52.51 0 .66.24.66.48 0 .1-.03.16-.03.16h-.27zM311.01 53.39s-.17.18-.44.18c-.43 0-.61-.23-.61-.66v-.81h-.27v-.25h.27v-.53h.32v.53h.65v.25h-.65v.81c0 .27.1.4.32.4.19 0 .31-.13.31-.13l.1.21zM312.76 53.55s-.05.02-.14.02c-.17 0-.29-.09-.29-.27v-.02c-.07.12-.23.29-.58.29s-.54-.17-.54-.44c0-.29.21-.47.67-.47h.42v-.24c0-.23-.13-.34-.36-.34-.23 0-.36.11-.36.27 0 .09.03.14.03.14h-.28s-.04-.06-.04-.19c0-.28.23-.48.65-.48.45 0 .66.21.66.61v.71c0 .11.03.18.14.18v.23zm-.46-.66h-.42c-.23 0-.35.08-.35.22s.12.23.31.23c.37 0 .47-.39.47-.39v-.06zM314.73 53.55s-.05.01-.14.01c-.2 0-.32-.11-.32-.38v-.68c0-.24-.11-.41-.37-.41-.29 0-.41.28-.41.49v.97h-.31v-1.31c0-.1-.03-.17-.14-.17v-.23s.05-.01.14-.01c.15 0 .28.1.28.26v.09c.05-.18.22-.36.53-.36.43 0 .6.3.6.67v.66c0 .11.03.17.15.17v.23zM316.45 53.25s-.17.33-.65.33c-.41 0-.77-.25-.77-.87 0-.58.29-.87.77-.87.44 0 .63.25.63.53 0 .11-.02.18-.02.18h-.29s.02-.06.02-.13c0-.15-.07-.33-.34-.33-.28 0-.47.18-.47.61 0 .49.29.62.51.62.31 0 .45-.24.45-.24l.16.17zM317.07 52.72v.03c.02.45.3.57.5.57.31 0 .44-.24.44-.24l.17.17s-.17.33-.65.33c-.41 0-.77-.25-.77-.87 0-.58.28-.87.76-.87s.65.33.65.78v.12h-1.1zm.81-.21c0-.23-.1-.41-.38-.41-.22 0-.39.12-.42.41h.8zM319.49 53.56v-2.48h.79c.56 0 .9.27.9.8s-.36.78-.86.78h-.51v.9h-.32zm.77-1.17c.39 0 .58-.18.58-.51 0-.32-.19-.53-.59-.53h-.44v1.04h.45zM321.59 53.56v-1.3c0-.11-.03-.17-.14-.17v-.23s.04-.01.13-.01c.15 0 .28.07.28.27v.08c.05-.18.21-.36.53-.36.15 0 .23.05.23.05l-.13.28s-.06-.04-.19-.04c-.28 0-.4.27-.41.47v.97h-.3zM322.77 52.7c0-.55.29-.87.76-.87.46 0 .76.33.76.87s-.29.87-.76.87c-.47.01-.76-.32-.76-.87zm1.21 0c0-.41-.18-.61-.45-.61s-.45.21-.45.61c0 .41.18.61.45.61.27.01.45-.2.45-.61zM325.56 53.37c.37 0 .66.16.66.51 0 .31-.22.56-.83.56-.57 0-.82-.19-.82-.53 0-.28.21-.38.27-.41-.05-.03-.2-.1-.2-.27s.1-.26.23-.29c-.05-.05-.21-.19-.21-.45 0-.4.33-.64.72-.64.14 0 .24.05.26.05.18 0 .37-.06.37-.33l.26.04c0 .35-.27.41-.38.42.09.07.22.22.22.46 0 .41-.34.64-.73.64-.14 0-.25-.05-.29-.06-.1 0-.17.05-.17.15 0 .13.11.16.27.16h.37zm-.38.22c-.19 0-.31.1-.31.29 0 .19.14.28.5.28.39 0 .54-.1.54-.3 0-.18-.12-.28-.34-.28h-.39zm.2-1.5c-.24 0-.42.15-.42.38s.17.38.41.38c.24 0 .42-.15.42-.38.01-.23-.17-.38-.41-.38zM326.59 53.56v-1.3c0-.11-.03-.17-.14-.17v-.23s.04-.01.13-.01c.15 0 .28.07.28.27v.08c.05-.18.21-.36.53-.36.15 0 .23.05.23.05l-.13.28s-.06-.04-.19-.04c-.28 0-.4.27-.41.47v.97h-.3zM329.33 53.55s-.05.02-.14.02c-.17 0-.29-.09-.29-.27v-.02c-.07.12-.23.29-.58.29s-.54-.17-.54-.44c0-.29.21-.47.67-.47h.42v-.24c0-.23-.13-.34-.36-.34-.23 0-.36.11-.36.27 0 .09.03.14.03.14h-.28s-.04-.06-.04-.19c0-.28.23-.48.65-.48.45 0 .66.21.66.61v.71c0 .11.03.18.14.18v.23zm-.46-.66h-.42c-.23 0-.35.08-.35.22s.12.23.31.23c.37 0 .47-.39.47-.39v-.06zM332.38 53.55s-.05.01-.14.01c-.2 0-.32-.11-.32-.38v-.68c0-.24-.11-.41-.37-.41-.24 0-.36.21-.39.4v.67c0 .11.03.17.15.17v.23s-.05.01-.14.01c-.2 0-.32-.11-.32-.38v-.69c0-.24-.11-.41-.37-.41-.29 0-.41.28-.41.49v.97h-.31v-1.31c0-.1-.03-.17-.14-.17v-.23s.05-.01.14-.01c.15 0 .28.1.28.26v.09c.05-.18.22-.36.53-.36.29 0 .47.14.55.34.06-.18.22-.34.53-.34.43 0 .6.3.6.67v.66c0 .11.03.17.14.17v.23zM263.97 40.37l-6.15-1.14v4.09l6.18-2.84c-.02-.04-.02-.08-.03-.11zM264.02 39.88l-5.75-5.43h-.45v4.74l6.19.71s.01-.01.01-.02zM264.51 39.33l-1.53-4.88h-4.69l6.1 4.94.12-.06zM265.28 39.29l1.08-4.84h-3.3l1.92 4.78c.1.01.2.03.3.06z"/><path class="st1" d="m265.89 40.45-.03.09v.01l5.7 5.24-5.87-4.96 2.73 8.46h2.94c1.4 0 1.6-.76 1.6-1.96v-4.65c-3.56-.6-6.09-1.34-7.07-2.23zM264.87 41.19l-7.05 8.03v.08h5.95l1.17-8.1c-.03 0-.05-.01-.07-.01zM264.36 41l-6.54 2.34v5.86l6.57-8.18c-.02 0-.03-.01-.03-.02z"/><g><path class="st1" d="M277.46 42.75h1.78v-1.63h-5.79v-5.03h6.96v-1.63h-8.89v7.4c1.65.31 3.65.62 5.94.89zM273.45 42.77c-.68-.11-1.32-.23-1.93-.35v6.87h8.89v-1.63h-6.96v-4.89z"/></g><g><path class="st1" d="M290.54 43.74c.8.03 1.62.07 2.46.09-1.4-3.81-8.54-1.83-8.54-5.39 0-1.31 1.15-2.44 3.33-2.44 2.93 0 3.8 2.04 3.8 2.04l1.42-1s-1-2.71-5.34-2.71c-3.35 0-5.17 1.89-5.17 4.14-.02 4.76 5.94 3.52 8.04 5.27zM291.02 44.31c.16.29.25.63.25 1.04 0 1.48-1.29 2.4-3.39 2.4-3.2 0-4.6-2.38-4.6-2.38l-1.21 1.12s1.36 2.93 5.81 2.93c3.67 0 5.37-1.97 5.37-4.14 0-.33-.03-.63-.09-.9-.72-.02-1.44-.04-2.14-.07z"/></g><g><path class="st1" d="m305.18 43.95 2.67-5.64v5.59c.65-.02 1.29-.03 1.93-.05v-9.4h-1.95l-4.52 9.51c.62 0 1.24 0 1.87-.01zM297.92 43.94v-5.63l2.68 5.65h1.95l-4.5-9.52h-2.06v9.46c.64.02 1.28.03 1.93.04zM303.04 44.53l-.11.23-.11-.23H300.87l1.32 2.78h1.4l1.32-2.79c-.62 0-1.25 0-1.87.01zM295.99 44.46v4.84h1.93v-4.8c-.64-.01-1.28-.02-1.93-.04zM307.85 44.46v4.84h1.93v-4.9l-1.93.06z"/></g><g><path class="st1" d="M312.07 49.3h1.99l1.88-5.16c-.66.04-1.33.07-2.01.1l-1.86 5.06zM324.94 49.3l-2.08-5.65c-.63.05-1.27.11-1.91.16l2 5.49h1.99zM316.15 43.57l2.35-6.47 2.26 6.16c.65-.05 1.28-.1 1.91-.15l-3.19-8.66h-1.93l-3.4 9.22c.67-.03 1.34-.06 2-.1z"/></g><g><path class="st1" d="M330.08 42.32h-.91v-6.24h2.65c2.42 0 3.56 1.27 3.56 3.18 0 1.07-.34 1.87-1.03 2.39 1.02-.19 1.93-.38 2.72-.59.18-.53.28-1.12.28-1.8 0-3.22-2.04-4.81-5.39-4.81h-4.73v8.21c.99-.1 1.94-.22 2.85-.34zM327.23 43.22v6.08h1.93v-5.37h3.03c2.1 0 3.78-.72 4.6-2.23-2.36.56-5.66 1.08-9.56 1.52z"/></g><g><path class="st1" d="M152.01 51.34c1.37-.01 2.66-.21 3.81-.6.29-.1.57-.21.83-.32-.32.78-.79 1.43-1.4 1.91-1.21.89-2.63 1.5-4.18 1.73.39-.66.7-1.61.94-2.72m-6.43 1.9c-.03-.02-.06-.05-.09-.06-.54-.26-.76-1.46-.48-3.29 1.03.46 2.16.83 3.34 1.09.9.19 1.79.31 2.66.36-.43 1.86-.98 2.84-1.34 2.84-.02 0-.05 0-.07.01a9.66 9.66 0 0 1-4.02-.95m-4.99-5.92c-.08-.31-.13-.64-.16-.96.32.46.72.91 1.18 1.34.71.65 1.55 1.24 2.49 1.74-.19 1.07-.24 2.04-.12 2.82a9.495 9.495 0 0 1-3.39-4.94m12.03-2.6c0-.38-.01-.76-.02-1.14 1.2-.08 2.32-.39 3.23-.92.85 1.67 1.3 3.43 1.3 5.1 0 .48-.04.94-.12 1.37-.43.27-.94.5-1.5.69-1 .34-2.13.52-3.32.55.29-1.71.43-3.71.43-5.65m-4.07 5.3c-1.2-.26-2.33-.64-3.36-1.12.34-1.52.96-3.35 1.96-5.39.14-.29.29-.59.44-.87.69.31 1.45.56 2.24.73.6.13 1.2.2 1.8.22.01.36.01.74.01 1.12 0 2.28-.18 4.17-.44 5.65-.86-.03-1.75-.14-2.65-.34m-6.27-3.03c-.82-.76-1.39-1.56-1.68-2.36.23-.89.67-1.79 1.32-2.65.62-.82 1.38-1.55 2.26-2.18.25.46.61.91 1.06 1.33.43.4.93.77 1.49 1.09-.15.29-.3.58-.45.88-.86 1.76-1.56 3.65-1.97 5.36-.76-.44-1.45-.93-2.03-1.47m9.68-9c1.1.82 2.11 1.88 2.95 3.11.16.23.31.47.45.71-.77.45-1.75.71-2.8.79-.09-1.66-.29-3.27-.6-4.61m-1.92 4.44c-.7-.15-1.37-.36-1.98-.63.9-1.58 1.89-2.95 2.86-3.98.3 1.2.56 2.81.67 4.8a9.24 9.24 0 0 1-1.55-.19m-4.13-2.02c-.4-.37-.7-.77-.91-1.16.91-.55 1.91-.99 2.98-1.31.64-.19 1.28-.33 1.92-.43-.93 1.04-1.85 2.36-2.7 3.85-.49-.28-.92-.6-1.29-.95m-2.09-3.08c-.01.05-.03.1-.04.15-.1.46-.09.92.03 1.39-1.04.72-1.95 1.57-2.67 2.52-.22.29-.42.59-.59.89a9.475 9.475 0 0 1 3.27-4.95m.91.35c.11-.5.41-.95.88-1.32 1.13-.34 2.44-.26 3.83.25-.58.1-1.16.23-1.74.41-1.07.32-2.07.76-3 1.29-.02-.22-.01-.43.03-.63m7.86-1.28c.33-.21.64-.36.89-.42.49.19.97.44 1.42.76-.73-.19-1.51-.3-2.31-.34m-1.64-1.04c.39.04.81.11 1.24.21-.27.14-.55.32-.83.54-.12-.28-.26-.53-.41-.75m-1.04.39c-.44-.17-.87-.3-1.3-.39.34-.04.69-.06 1.04-.06.16 0 .37.2.58.58-.11-.05-.21-.09-.32-.13m-10.65 8.98c0 .99.14 1.95.4 2.85.02.06.03.12.05.18 0 .01.01.02.01.04 1.31 4.24 5.27 7.34 9.94 7.34 2.16 0 4.17-.66 5.83-1.79.02-.01.03-.02.05-.03.1-.07.2-.14.29-.21 1.91-1.41 3.33-3.47 3.93-5.85l.09-.33c.01-.03.01-.05.01-.08a10.395 10.395 0 0 0-.6-6.17.481.481 0 1 0-.89.37 9.4 9.4 0 0 1 .74 3.67c0 .78-.09 1.54-.28 2.27-.14.46-.39.88-.74 1.27.01-.16.01-.33.01-.5 0-1.86-.51-3.82-1.46-5.66.7-.6 1.14-1.34 1.3-2.17a.485.485 0 0 0-.39-.56.487.487 0 0 0-.57.39c-.1.55-.38 1.05-.83 1.48-.14-.23-.28-.46-.43-.68a14.1 14.1 0 0 0-2.96-3.18c1.46.09 2.81.45 3.89 1.05.17.1.4.09.56-.04.21-.17.23-.48.06-.68-1.56-2.18-4.26-3.39-7.6-3.39-5.74.01-10.41 4.68-10.41 10.41"/><path class="st0" d="M162.66 44.25h83.25"/><path class="st1" d="M207.73 47.7v5.95h-1.87V47.7h1.87zM208.37 47.7h4.16v1.43h-2.3v.96h2.04v1.43h-2.04v2.13h-1.86V47.7zM217.03 53.5c-.35.12-.86.24-1.33.24-1.61 0-2.91-1.04-2.91-3.16 0-1.99 1.35-2.99 2.91-2.99.51 0 .82.08 1.32.19v1.57c-.31-.12-.62-.22-.93-.22-.79 0-1.39.52-1.39 1.49 0 1.02.56 1.54 1.33 1.54.34 0 .67-.09 1.01-.23v1.57z"/><g><path d="M218.96 54.12c-.05 0-.08-.04-.08-.08v-6.68c0-.05.04-.08.08-.08s.08.04.08.08v6.68c0 .05-.04.08-.08.08z" style="fill:none;stroke:#fff;stroke-width:.1046;stroke-miterlimit:10"/></g><g><path class="st1" d="M220.65 48.67h.46v1.72h-.46v-1.72zM221.4 49.1h.4v.24c.09-.19.27-.27.47-.27.35 0 .49.25.49.51v.8h-.44v-.62c0-.24-.08-.32-.2-.32-.18 0-.28.12-.28.4v.54h-.44V49.1zM222.91 49.1h.26v-.29l.44-.14v.42h.31v.31h-.31v.47c0 .16.04.24.18.24.04 0 .09-.01.13-.02l.02.29c-.09.01-.17.02-.28.02-.4 0-.49-.17-.49-.48v-.52h-.26v-.3zM224.48 49.87c.02.18.16.25.38.25.12 0 .26-.03.39-.1v.31c-.14.06-.31.08-.47.08-.43 0-.75-.25-.75-.67 0-.42.29-.67.69-.67.48 0 .65.34.65.72v.08h-.89zm.49-.25c0-.15-.07-.27-.25-.27-.16 0-.24.12-.24.27h.49zM226.49 49.46c-.05-.02-.1-.02-.15-.02-.21 0-.32.15-.32.4v.54h-.44V49.1h.41v.24c.08-.16.19-.27.38-.27.05 0 .11.01.15.01l-.03.38zM226.69 49.1h.4v.24h.01c.09-.19.27-.27.47-.27.35 0 .49.25.49.51v.8h-.44v-.62c0-.24-.08-.32-.21-.32-.18 0-.28.12-.28.4v.54h-.44V49.1zM229.15 50.39c0-.07-.01-.14-.01-.2-.1.16-.22.23-.41.23-.25 0-.48-.12-.48-.4 0-.39.43-.44.67-.44.07 0 .15.01.21.02 0-.18-.13-.22-.29-.22a.83.83 0 0 0-.41.1l-.01-.3c.16-.07.33-.09.52-.09.33 0 .61.14.61.53v.48c0 .1 0 .2.02.3h-.42zm-.31-.27c.17 0 .28-.16.28-.31-.06 0-.12-.01-.19-.01-.15 0-.27.05-.27.17 0 .1.08.15.18.15zM229.68 49.1h.26v-.29l.44-.14v.42h.31v.31h-.31v.47c0 .16.04.24.18.24.04 0 .09-.01.14-.02l.02.29c-.09.01-.17.02-.28.02-.4 0-.49-.17-.49-.48v-.52h-.25v-.3zM231.35 48.89h-.44v-.32h.44v.32zm-.44.21h.44v1.28h-.44V49.1zM231.6 49.74c0-.43.32-.67.75-.67.42 0 .75.25.75.67 0 .42-.32.67-.75.67s-.75-.24-.75-.67zm1.03 0c0-.19-.09-.36-.29-.36-.21 0-.29.17-.29.36 0 .19.08.36.29.36.21 0 .29-.17.29-.36zM233.28 49.1h.41v.24c.09-.19.27-.27.47-.27.35 0 .49.25.49.51v.8h-.44v-.62c0-.24-.08-.32-.2-.32-.18 0-.28.12-.28.4v.54h-.45V49.1zM235.74 50.39c0-.07-.01-.14-.01-.2-.1.16-.22.23-.41.23-.25 0-.48-.12-.48-.4 0-.39.42-.44.66-.44.07 0 .15.01.21.02 0-.18-.13-.22-.29-.22a.83.83 0 0 0-.41.1l-.01-.3c.16-.07.32-.09.51-.09.33 0 .61.14.61.53v.48c0 .1.01.2.03.3h-.41zm-.31-.27c.17 0 .27-.16.27-.31-.06 0-.12-.01-.19-.01-.15 0-.27.05-.27.17.01.1.09.15.19.15zM236.43 48.54h.44v1.85h-.44v-1.85zM220.65 51h1.15v.33h-.69v.38h.66v.32h-.66v.69h-.46V51zM222.48 51.23h-.44v-.33h.44v.33zm-.44.21h.44v1.28h-.44v-1.28zM222.79 51.44h.4v.24c.09-.19.27-.27.47-.27.35 0 .49.25.49.51v.8h-.45v-.62c0-.24-.08-.32-.2-.32-.18 0-.27.13-.27.4v.54h-.45v-1.28zM225.25 52.72c0-.07-.01-.13-.01-.2-.1.16-.22.23-.41.23-.25 0-.48-.13-.48-.4 0-.39.43-.44.67-.44.07 0 .15.01.21.02 0-.17-.13-.22-.29-.22a.83.83 0 0 0-.41.1l-.01-.3c.16-.06.32-.09.51-.09.33 0 .61.14.61.53v.48c0 .1 0 .2.03.3h-.42zm-.31-.26c.17 0 .27-.15.27-.3-.06 0-.12-.01-.19-.01-.15 0-.27.05-.27.17.01.09.09.14.19.14zM225.89 51.44h.41v.24c.09-.19.27-.27.47-.27.35 0 .49.25.49.51v.8h-.44v-.62c0-.24-.09-.32-.21-.32-.18 0-.28.13-.28.4v.54h-.44v-1.28zM228.51 51.81a.473.473 0 0 0-.27-.07c-.19 0-.34.13-.34.36 0 .2.17.34.36.34.1 0 .2-.02.28-.06l.01.33c-.11.04-.24.06-.36.06-.42 0-.75-.25-.75-.67 0-.43.32-.67.75-.67.13 0 .25.02.35.07l-.03.31zM229.1 52.21c.02.18.16.24.38.24.12 0 .26-.03.39-.1v.31c-.14.06-.31.08-.47.08-.42 0-.75-.25-.75-.67 0-.42.29-.67.69-.67.48 0 .65.34.65.72v.08h-.89zm.49-.25c0-.15-.07-.27-.25-.27-.16 0-.24.12-.25.27h.5zM232.39 52.68c-.13.03-.28.07-.51.07-.46 0-.99-.23-.99-.88 0-.6.42-.9.98-.9.18 0 .35.04.51.09l-.04.37a.92.92 0 0 0-.45-.12c-.32 0-.54.24-.54.56 0 .34.24.54.58.54.15 0 .3-.04.43-.09l.03.36zM232.48 52.08c0-.43.32-.67.74-.67.43 0 .75.25.75.67 0 .42-.32.67-.75.67-.41 0-.74-.24-.74-.67zm1.04 0c0-.19-.08-.36-.29-.36-.2 0-.29.17-.29.36 0 .19.08.36.29.36.21 0 .29-.17.29-.36zM235.08 51.79c-.05-.01-.1-.01-.15-.01-.2 0-.32.15-.32.4v.54h-.45v-1.28h.4v.24c.08-.16.19-.27.38-.27.05 0 .1.01.15.01l-.01.37zM235.25 51.44h.41v.23c.09-.18.28-.26.48-.26.36 0 .55.34.55.65 0 .38-.2.69-.59.69-.15 0-.32-.06-.41-.21h-.01v.7h-.44v-1.8zm.71.31c-.16 0-.27.14-.27.33s.12.33.27.33c.17 0 .27-.14.27-.34 0-.17-.09-.32-.27-.32zM236.82 52.08c0-.43.33-.67.75-.67s.75.25.75.67c0 .42-.32.67-.75.67-.42 0-.75-.24-.75-.67zm1.04 0c0-.19-.08-.36-.29-.36s-.29.17-.29.36c0 .19.08.36.29.36s.29-.17.29-.36zM239.42 51.79c-.05-.01-.1-.01-.15-.01-.21 0-.32.15-.32.4v.54h-.44v-1.28h.4v.24h.01c.07-.16.19-.27.38-.27.05 0 .11.01.15.01l-.03.37zM240.41 52.72c0-.07-.01-.13-.01-.2h-.01c-.1.16-.22.23-.41.23-.25 0-.48-.13-.48-.4 0-.39.43-.44.66-.44.07 0 .15.01.21.02 0-.17-.13-.22-.29-.22a.83.83 0 0 0-.41.1l-.01-.3c.16-.06.32-.09.51-.09.33 0 .61.14.61.53v.48c0 .1.01.2.02.3h-.39zm-.3-.26c.17 0 .27-.15.27-.3-.06 0-.12-.01-.19-.01-.15 0-.27.05-.27.17.01.09.08.14.19.14zM240.94 51.44h.26v-.29l.44-.14v.42h.31v.31h-.31v.47c0 .16.04.23.18.23.04 0 .09-.01.13-.02l.01.29c-.08.01-.17.02-.28.02-.4 0-.5-.17-.5-.48v-.52h-.25v-.29zM242.62 51.23h-.44v-.33h.44v.33zm-.44.21h.44v1.28h-.44v-1.28zM242.86 52.08c0-.43.32-.67.75-.67.42 0 .75.25.75.67 0 .42-.32.67-.75.67s-.75-.24-.75-.67zm1.04 0c0-.19-.08-.36-.29-.36-.21 0-.29.17-.29.36 0 .19.09.36.29.36.2 0 .29-.17.29-.36zM244.55 51.44h.4v.24c.09-.19.27-.27.47-.27.35 0 .49.25.49.51v.8h-.45v-.62c0-.24-.08-.32-.2-.32-.18 0-.28.13-.28.4v.54h-.44v-1.28z"/></g><g><path class="st1" d="M163.41 51.63h.33v1.67h-.33zM164.03 53.3v-1.67h.63c.34 0 .54.13.54.44 0 .3-.17.34-.26.34v.01c.11 0 .37.1.37.41 0 .35-.27.47-.58.47h-.7zm.6-.97c.18 0 .24-.09.24-.22 0-.14-.09-.21-.29-.21h-.22v.43h.27zm.03.7c.16 0 .29-.05.29-.24 0-.17-.13-.24-.3-.24h-.29v.47h.3zM166.9 53.29s-.06.02-.17.02c-.51 0-.37-.63-.72-.63h-.18v.62h-.33v-1.67h.59c.41 0 .63.15.63.52 0 .24-.16.37-.29.42.17.14.18.47.4.47h.07v.25zm-.84-.86c.2 0 .34-.09.34-.26s-.12-.27-.32-.27h-.24v.53h.22zM167.05 53.3v-1.67h.49c.44 0 .83.24.83.86 0 .59-.35.8-.76.8h-.56zm.55-.27c.26 0 .44-.19.44-.54 0-.37-.16-.59-.51-.59h-.15v1.14h.22zM169.34 52.92c-.17 0-.31-.14-.31-.31 0-.17.13-.31.31-.31.17 0 .31.14.31.31 0 .17-.14.31-.31.31M170.4 51.63h.33v1.67h-.33zM171.02 53.3v-1.67h.49c.44 0 .83.24.83.86 0 .59-.35.8-.76.8h-.56zm.55-.27c.25 0 .43-.19.43-.54 0-.37-.16-.59-.51-.59h-.16v1.14h.24zM173.42 52.88h-.59l-.14.42h-.34l.61-1.67h.33l.61 1.67h-.34l-.14-.42zm-.5-.25h.42l-.21-.6-.21.6zM162.54 47.58h2.48v.51h-.91v2.55h-.66v-2.55h-.91zM165.37 50.64v-3.06h.65v1.21h1.16v-1.21h.66v3.06h-.66V49.3h-1.16v1.34zM168.38 47.58h2.05v.51h-1.4v.72h1.31v.51h-1.31v.82h1.45v.5h-2.1zM173.69 47.58h.74l.53 2.3h.01l.49-2.3h.63l-.78 3.06h-.73l-.55-2.33h-.01l-.59 2.33h-.74l-.75-3.06h.68l.47 2.3h.01zM176.31 49.11c0-.9.46-1.59 1.47-1.59s1.47.69 1.47 1.59c0 .9-.46 1.59-1.47 1.59-1.01.01-1.47-.68-1.47-1.59m.7 0c0 .52.12 1.12.77 1.12s.77-.59.77-1.12c0-.52-.12-1.12-.77-1.12-.64 0-.77.6-.77 1.12M180.34 50.64h-.66v-3.06h1.3c.53 0 1.06.17 1.06.8 0 .4-.26.66-.63.74v.01c.51.06.51.37.56.79.03.19.05.55.18.72h-.72c-.05-.27-.09-.55-.12-.82-.02-.17-.06-.4-.27-.41h-.69v1.23zm0-1.74h.55c.29 0 .46-.15.46-.42s-.17-.39-.46-.39h-.55v.81zM182.55 50.64v-3.06h.66v2.55h1.32v.51zM184.89 47.58h1.04c.95-.01 1.54.47 1.54 1.53s-.59 1.54-1.54 1.53h-1.04v-3.06zm.66 2.56h.34c.78.01.89-.53.89-1.02s-.12-1.03-.89-1.02h-.34v2.04zM189.14 50.64v-3.06h1.15c.55-.03 1.1.2 1.1.79 0 .33-.23.57-.54.67v.01c.38.08.67.35.67.8 0 .6-.76.82-1.23.79h-1.15zm1.17-.5c.31 0 .52-.06.52-.41s-.21-.41-.52-.41h-.51v.81h.51zm0-1.33c.28 0 .43-.11.43-.36s-.15-.36-.43-.36h-.51v.72h.51zM191.73 50.64l1.11-3.06h.77l1.07 3.06h-.66l-.22-.65h-1.21l-.23.65h-.63zm1.91-1.15-.42-1.31h-.01l-.45 1.31h.88zM196.85 50.64l-1.21-2.54-.01.01v2.53h-.61v-3.06h.97l1.17 2.41V47.58h.62v3.06zM198.97 48.91h.01l1.02-1.33h.76l-1.12 1.37 1.22 1.69h-.82l-1.06-1.56h-.01v1.56h-.65v-3.06h.65z"/></g><path class="st1" d="M243.53 35.4c1.54 0 2.39.74 2.39 2.09 0 1.28-.83 2.04-2.23 2.04h-.98v1.95h-1.3V35.4h2.12zm-.83 3.07h.78c.75 0 1.13-.33 1.13-.98 0-.66-.42-1.02-1.17-1.02h-.73v2zm-3.68.57c0 .89-.34 1.33-1.05 1.33s-1.07-.45-1.07-1.33V35.4h-1.3v3.56c0 .87.21 1.53.65 1.97.4.4.98.61 1.72.61 1.07 0 2.34-.45 2.34-2.57V35.4h-1.3v3.64zm-6.95-3.7c1.31 0 2.72.81 2.72 3.1 0 2.27-1.4 3.08-2.72 3.08-1.32 0-2.73-.81-2.73-3.08 0-2.28 1.41-3.1 2.73-3.1m0 5.06c.52 0 1.38-.25 1.38-1.95s-.86-1.95-1.38-1.95c-.89 0-1.39.69-1.39 1.95 0 1.25.49 1.95 1.39 1.95m-4.07-.76c.21.44.4.81.83.81h.31v1l-.04.01c-.01 0-.24.06-.63.06-1.03 0-1.34-.7-1.62-1.32-.23-.51-.42-.95-.96-.95h-.57v2.23h-1.3V35.4h2.15c1.58 0 2.31.61 2.31 1.93 0 .82-.49 1.32-.98 1.54.23.21.37.49.5.77m-2.68-1.4h.72c.72 0 1.17-.33 1.17-.88 0-.57-.39-.9-1.07-.9h-.82v1.78zm-4.75 1.02h1.34v.07c0 .39-.14 1.05-1.07 1.05-.88 0-1.4-.72-1.4-1.93 0-1.24.5-1.95 1.38-1.95 1.04 0 1.08 1.06 1.08 1.1v.07l1.21-.19v-.05c0-.44-.39-2.08-2.31-2.08-1.72 0-2.7 1.13-2.7 3.1 0 1.93 1.02 3.08 2.72 3.08 1.71 0 2.32-1.19 2.32-2.21v-1.06h-2.56v1zm-3.88-3.86h-1.54l-2.01 2.74V35.4h-1.31v6.08h1.31v-2.8l2.07 2.8h1.56l-2.36-3.07 2.28-3.01zm-7.33 3.76-2.13-3.76h-1.31v6.08h1.3v-3.63l2.12 3.63h1.32V35.4h-1.3v3.76zm-6-3.72 2.22 6.04h-1.35l-.52-1.49h-2.03l-.5 1.49h-1.36l2.23-6.08h1.29l.02.04zm-.66 1.61-.66 1.92h1.33l-.67-1.92zm-4.08 1.22c.47.13 1.08.56 1.08 1.48 0 1.1-.78 1.73-2.14 1.73H195V35.4h2.32c1.32 0 1.99.55 1.99 1.63-.01.84-.39 1.14-.69 1.24m-1.44-.39c.54 0 .79-.23.79-.72 0-.46-.32-.7-.95-.7h-.72v1.41h.88zm-.89 2.52h1.01c.66 0 .97-.25.97-.78 0-.65-.54-.79-1-.79h-.99v1.57zm-6.63-5c1.89 0 3.02 1.17 3.02 3.14 0 1.87-1.01 2.94-2.77 2.94h-2.06V35.4h1.81zm-.52 5h.75c.94 0 1.49-.7 1.49-1.88 0-1.36-.59-2.05-1.75-2.05h-.49v3.93zm-4.53-5h-1.3v6.08h3.93V40.4h-2.63v-5zm-3.04 4.24c.21.44.4.81.83.81h.31v1l-.04.01c-.01 0-.23.06-.63.06-1.02 0-1.34-.7-1.62-1.32-.23-.51-.42-.95-.96-.95h-.57v2.23h-1.3V35.4h2.16c1.58 0 2.31.61 2.31 1.93 0 .82-.49 1.32-.98 1.54.21.21.35.49.49.77m-2.68-1.4h.72c.72 0 1.17-.33 1.17-.88 0-.57-.39-.9-1.07-.9h-.82v1.78zm-4.76-2.9c1.31 0 2.72.81 2.72 3.1 0 2.27-1.4 3.08-2.72 3.08-1.32 0-2.73-.81-2.73-3.08.01-2.28 1.41-3.1 2.73-3.1m0 5.06c.52 0 1.38-.25 1.38-1.95s-.87-1.95-1.38-1.95c-.89 0-1.39.69-1.39 1.95.01 1.25.5 1.95 1.39 1.95m-4.37-5h1.47l-1.75 6.08h-1.46l-1.06-3.81-1.08 3.81h-1.46l-1.75-6.08h1.51l1.02 4.44 1.23-4.44h1.09l1.19 4.44 1.05-4.44z"/></g></g></g></svg>